<mxfile host="app.diagrams.net" modified="2023-12-16T13:45:15.064Z" agent="Mozilla/5.0 (Windows NT 10.0; Win64; x64) AppleWebKit/537.36 (KHTML, like Gecko) Chrome/120.0.0.0 Safari/537.36" etag="M5alyY9eaIf4yNGzd6Aa" version="22.1.11" type="device" pages="5">
  <diagram name="第 1 页" id="vTIbfNoE6LMUsqmQI-Lw">
    <mxGraphModel dx="1221" dy="774" grid="1" gridSize="10" guides="1" tooltips="1" connect="1" arrows="1" fold="1" page="1" pageScale="1" pageWidth="827" pageHeight="1169" math="0" shadow="0">
      <root>
        <mxCell id="0" />
        <mxCell id="1" parent="0" />
        <mxCell id="zMVxvvhwF_4nrSCXzsaq-2" value="" style="endArrow=classic;html=1;rounded=0;" parent="1" edge="1">
          <mxGeometry width="50" height="50" relative="1" as="geometry">
            <mxPoint x="160" y="400" as="sourcePoint" />
            <mxPoint x="160" y="240" as="targetPoint" />
          </mxGeometry>
        </mxCell>
        <mxCell id="zMVxvvhwF_4nrSCXzsaq-3" value="" style="endArrow=classic;html=1;rounded=0;" parent="1" edge="1">
          <mxGeometry width="50" height="50" relative="1" as="geometry">
            <mxPoint x="160" y="400" as="sourcePoint" />
            <mxPoint x="320" y="400" as="targetPoint" />
          </mxGeometry>
        </mxCell>
        <mxCell id="zMVxvvhwF_4nrSCXzsaq-27" value="" style="ellipse;whiteSpace=wrap;html=1;aspect=fixed;fillColor=#FFD966;strokeColor=#FFFFFF;" parent="1" vertex="1">
          <mxGeometry x="180" y="310" width="10" height="10" as="geometry" />
        </mxCell>
        <mxCell id="zMVxvvhwF_4nrSCXzsaq-29" value="" style="ellipse;whiteSpace=wrap;html=1;aspect=fixed;fillColor=#FFD966;strokeColor=#FFFFFF;" parent="1" vertex="1">
          <mxGeometry x="170" y="340" width="10" height="10" as="geometry" />
        </mxCell>
        <mxCell id="zMVxvvhwF_4nrSCXzsaq-30" value="" style="ellipse;whiteSpace=wrap;html=1;aspect=fixed;fillColor=#FFD966;strokeColor=#FFFFFF;" parent="1" vertex="1">
          <mxGeometry x="210" y="320" width="10" height="10" as="geometry" />
        </mxCell>
        <mxCell id="zMVxvvhwF_4nrSCXzsaq-31" value="" style="ellipse;whiteSpace=wrap;html=1;aspect=fixed;fillColor=#FFD966;strokeColor=#FFFFFF;" parent="1" vertex="1">
          <mxGeometry x="190" y="340" width="10" height="10" as="geometry" />
        </mxCell>
        <mxCell id="zMVxvvhwF_4nrSCXzsaq-32" value="" style="ellipse;whiteSpace=wrap;html=1;aspect=fixed;fillColor=#FFD966;strokeColor=#FFFFFF;" parent="1" vertex="1">
          <mxGeometry x="190" y="360" width="10" height="10" as="geometry" />
        </mxCell>
        <mxCell id="zMVxvvhwF_4nrSCXzsaq-33" value="" style="ellipse;whiteSpace=wrap;html=1;aspect=fixed;fillColor=#FFD966;strokeColor=#FFFFFF;" parent="1" vertex="1">
          <mxGeometry x="210" y="340" width="10" height="10" as="geometry" />
        </mxCell>
        <mxCell id="zMVxvvhwF_4nrSCXzsaq-35" value="" style="ellipse;whiteSpace=wrap;html=1;aspect=fixed;fillColor=#FFD966;strokeColor=#FFFFFF;" parent="1" vertex="1">
          <mxGeometry x="220" y="350" width="10" height="10" as="geometry" />
        </mxCell>
        <mxCell id="zMVxvvhwF_4nrSCXzsaq-36" value="" style="ellipse;whiteSpace=wrap;html=1;aspect=fixed;fillColor=#FFD966;strokeColor=#FFFFFF;" parent="1" vertex="1">
          <mxGeometry x="190" y="320" width="10" height="10" as="geometry" />
        </mxCell>
        <mxCell id="zMVxvvhwF_4nrSCXzsaq-37" value="" style="ellipse;whiteSpace=wrap;html=1;aspect=fixed;fillColor=#FFD966;strokeColor=#FFFFFF;" parent="1" vertex="1">
          <mxGeometry x="200" y="300" width="10" height="10" as="geometry" />
        </mxCell>
        <mxCell id="zMVxvvhwF_4nrSCXzsaq-38" value="" style="group;aspect=fixed;" parent="1" vertex="1" connectable="0">
          <mxGeometry x="250" y="350" width="8" height="8" as="geometry" />
        </mxCell>
        <mxCell id="zMVxvvhwF_4nrSCXzsaq-39" value="" style="endArrow=none;html=1;rounded=0;strokeColor=#FF0000;strokeWidth=3;" parent="zMVxvvhwF_4nrSCXzsaq-38" edge="1">
          <mxGeometry width="50" height="50" relative="1" as="geometry">
            <mxPoint y="8" as="sourcePoint" />
            <mxPoint x="8" as="targetPoint" />
          </mxGeometry>
        </mxCell>
        <mxCell id="zMVxvvhwF_4nrSCXzsaq-40" value="" style="endArrow=none;html=1;rounded=0;strokeColor=#FF0000;strokeWidth=3;" parent="zMVxvvhwF_4nrSCXzsaq-38" edge="1">
          <mxGeometry width="50" height="50" relative="1" as="geometry">
            <mxPoint x="8" y="8" as="sourcePoint" />
            <mxPoint as="targetPoint" />
          </mxGeometry>
        </mxCell>
        <mxCell id="zMVxvvhwF_4nrSCXzsaq-43" value="" style="group;aspect=fixed;" parent="1" vertex="1" connectable="0">
          <mxGeometry x="242" y="311" width="8" height="8" as="geometry" />
        </mxCell>
        <mxCell id="zMVxvvhwF_4nrSCXzsaq-44" value="" style="endArrow=none;html=1;rounded=0;strokeColor=#FF0000;strokeWidth=3;" parent="zMVxvvhwF_4nrSCXzsaq-43" edge="1">
          <mxGeometry width="50" height="50" relative="1" as="geometry">
            <mxPoint y="8" as="sourcePoint" />
            <mxPoint x="8" as="targetPoint" />
          </mxGeometry>
        </mxCell>
        <mxCell id="zMVxvvhwF_4nrSCXzsaq-45" value="" style="endArrow=none;html=1;rounded=0;strokeColor=#FF0000;strokeWidth=3;" parent="zMVxvvhwF_4nrSCXzsaq-43" edge="1">
          <mxGeometry width="50" height="50" relative="1" as="geometry">
            <mxPoint x="8" y="8" as="sourcePoint" />
            <mxPoint as="targetPoint" />
          </mxGeometry>
        </mxCell>
        <mxCell id="zMVxvvhwF_4nrSCXzsaq-46" value="" style="group;aspect=fixed;" parent="1" vertex="1" connectable="0">
          <mxGeometry x="250" y="330" width="8" height="8" as="geometry" />
        </mxCell>
        <mxCell id="zMVxvvhwF_4nrSCXzsaq-47" value="" style="endArrow=none;html=1;rounded=0;strokeColor=#FF0000;strokeWidth=3;" parent="zMVxvvhwF_4nrSCXzsaq-46" edge="1">
          <mxGeometry width="50" height="50" relative="1" as="geometry">
            <mxPoint y="8" as="sourcePoint" />
            <mxPoint x="8" as="targetPoint" />
          </mxGeometry>
        </mxCell>
        <mxCell id="zMVxvvhwF_4nrSCXzsaq-48" value="" style="endArrow=none;html=1;rounded=0;strokeColor=#FF0000;strokeWidth=3;" parent="zMVxvvhwF_4nrSCXzsaq-46" edge="1">
          <mxGeometry width="50" height="50" relative="1" as="geometry">
            <mxPoint x="8" y="8" as="sourcePoint" />
            <mxPoint as="targetPoint" />
          </mxGeometry>
        </mxCell>
        <mxCell id="zMVxvvhwF_4nrSCXzsaq-49" value="" style="group;aspect=fixed;" parent="1" vertex="1" connectable="0">
          <mxGeometry x="278" y="312" width="8" height="8" as="geometry" />
        </mxCell>
        <mxCell id="zMVxvvhwF_4nrSCXzsaq-50" value="" style="endArrow=none;html=1;rounded=0;strokeColor=#FF0000;strokeWidth=3;" parent="zMVxvvhwF_4nrSCXzsaq-49" edge="1">
          <mxGeometry width="50" height="50" relative="1" as="geometry">
            <mxPoint y="8" as="sourcePoint" />
            <mxPoint x="8" as="targetPoint" />
          </mxGeometry>
        </mxCell>
        <mxCell id="zMVxvvhwF_4nrSCXzsaq-51" value="" style="endArrow=none;html=1;rounded=0;strokeColor=#FF0000;strokeWidth=3;" parent="zMVxvvhwF_4nrSCXzsaq-49" edge="1">
          <mxGeometry width="50" height="50" relative="1" as="geometry">
            <mxPoint x="8" y="8" as="sourcePoint" />
            <mxPoint as="targetPoint" />
          </mxGeometry>
        </mxCell>
        <mxCell id="zMVxvvhwF_4nrSCXzsaq-52" value="" style="group;aspect=fixed;" parent="1" vertex="1" connectable="0">
          <mxGeometry x="270" y="338" width="8" height="8" as="geometry" />
        </mxCell>
        <mxCell id="zMVxvvhwF_4nrSCXzsaq-53" value="" style="endArrow=none;html=1;rounded=0;strokeColor=#FF0000;strokeWidth=3;" parent="zMVxvvhwF_4nrSCXzsaq-52" edge="1">
          <mxGeometry width="50" height="50" relative="1" as="geometry">
            <mxPoint y="8" as="sourcePoint" />
            <mxPoint x="8" as="targetPoint" />
          </mxGeometry>
        </mxCell>
        <mxCell id="zMVxvvhwF_4nrSCXzsaq-54" value="" style="endArrow=none;html=1;rounded=0;strokeColor=#FF0000;strokeWidth=3;" parent="zMVxvvhwF_4nrSCXzsaq-52" edge="1">
          <mxGeometry width="50" height="50" relative="1" as="geometry">
            <mxPoint x="8" y="8" as="sourcePoint" />
            <mxPoint as="targetPoint" />
          </mxGeometry>
        </mxCell>
        <mxCell id="zMVxvvhwF_4nrSCXzsaq-55" value="" style="group;aspect=fixed;" parent="1" vertex="1" connectable="0">
          <mxGeometry x="258" y="301" width="8" height="8" as="geometry" />
        </mxCell>
        <mxCell id="zMVxvvhwF_4nrSCXzsaq-56" value="" style="endArrow=none;html=1;rounded=0;strokeColor=#FF0000;strokeWidth=3;" parent="zMVxvvhwF_4nrSCXzsaq-55" edge="1">
          <mxGeometry width="50" height="50" relative="1" as="geometry">
            <mxPoint y="8" as="sourcePoint" />
            <mxPoint x="8" as="targetPoint" />
          </mxGeometry>
        </mxCell>
        <mxCell id="zMVxvvhwF_4nrSCXzsaq-57" value="" style="endArrow=none;html=1;rounded=0;strokeColor=#FF0000;strokeWidth=3;" parent="zMVxvvhwF_4nrSCXzsaq-55" edge="1">
          <mxGeometry width="50" height="50" relative="1" as="geometry">
            <mxPoint x="8" y="8" as="sourcePoint" />
            <mxPoint as="targetPoint" />
          </mxGeometry>
        </mxCell>
        <mxCell id="zMVxvvhwF_4nrSCXzsaq-58" value="" style="group;aspect=fixed;" parent="1" vertex="1" connectable="0">
          <mxGeometry x="262" y="312" width="8" height="8" as="geometry" />
        </mxCell>
        <mxCell id="zMVxvvhwF_4nrSCXzsaq-59" value="" style="endArrow=none;html=1;rounded=0;strokeColor=#FF0000;strokeWidth=3;" parent="zMVxvvhwF_4nrSCXzsaq-58" edge="1">
          <mxGeometry width="50" height="50" relative="1" as="geometry">
            <mxPoint y="8" as="sourcePoint" />
            <mxPoint x="8" as="targetPoint" />
          </mxGeometry>
        </mxCell>
        <mxCell id="zMVxvvhwF_4nrSCXzsaq-60" value="" style="endArrow=none;html=1;rounded=0;strokeColor=#FF0000;strokeWidth=3;" parent="zMVxvvhwF_4nrSCXzsaq-58" edge="1">
          <mxGeometry width="50" height="50" relative="1" as="geometry">
            <mxPoint x="8" y="8" as="sourcePoint" />
            <mxPoint as="targetPoint" />
          </mxGeometry>
        </mxCell>
        <mxCell id="zMVxvvhwF_4nrSCXzsaq-61" value="" style="group;aspect=fixed;" parent="1" vertex="1" connectable="0">
          <mxGeometry x="266" y="290" width="8" height="8" as="geometry" />
        </mxCell>
        <mxCell id="zMVxvvhwF_4nrSCXzsaq-62" value="" style="endArrow=none;html=1;rounded=0;strokeColor=#FF0000;strokeWidth=3;" parent="zMVxvvhwF_4nrSCXzsaq-61" edge="1">
          <mxGeometry width="50" height="50" relative="1" as="geometry">
            <mxPoint y="8" as="sourcePoint" />
            <mxPoint x="8" as="targetPoint" />
          </mxGeometry>
        </mxCell>
        <mxCell id="zMVxvvhwF_4nrSCXzsaq-63" value="" style="endArrow=none;html=1;rounded=0;strokeColor=#FF0000;strokeWidth=3;" parent="zMVxvvhwF_4nrSCXzsaq-61" edge="1">
          <mxGeometry width="50" height="50" relative="1" as="geometry">
            <mxPoint x="8" y="8" as="sourcePoint" />
            <mxPoint as="targetPoint" />
          </mxGeometry>
        </mxCell>
        <mxCell id="zMVxvvhwF_4nrSCXzsaq-64" value="" style="group;aspect=fixed;" parent="1" vertex="1" connectable="0">
          <mxGeometry x="234" y="295" width="8" height="8" as="geometry" />
        </mxCell>
        <mxCell id="zMVxvvhwF_4nrSCXzsaq-65" value="" style="endArrow=none;html=1;rounded=0;strokeColor=#FF0000;strokeWidth=3;" parent="zMVxvvhwF_4nrSCXzsaq-64" edge="1">
          <mxGeometry width="50" height="50" relative="1" as="geometry">
            <mxPoint y="8" as="sourcePoint" />
            <mxPoint x="8" as="targetPoint" />
          </mxGeometry>
        </mxCell>
        <mxCell id="zMVxvvhwF_4nrSCXzsaq-66" value="" style="endArrow=none;html=1;rounded=0;strokeColor=#FF0000;strokeWidth=3;" parent="zMVxvvhwF_4nrSCXzsaq-64" edge="1">
          <mxGeometry width="50" height="50" relative="1" as="geometry">
            <mxPoint x="8" y="8" as="sourcePoint" />
            <mxPoint as="targetPoint" />
          </mxGeometry>
        </mxCell>
        <mxCell id="zMVxvvhwF_4nrSCXzsaq-68" value="" style="group;aspect=fixed;" parent="1" vertex="1" connectable="0">
          <mxGeometry x="288" y="330" width="8" height="8" as="geometry" />
        </mxCell>
        <mxCell id="zMVxvvhwF_4nrSCXzsaq-69" value="" style="endArrow=none;html=1;rounded=0;strokeColor=#FF0000;strokeWidth=3;" parent="zMVxvvhwF_4nrSCXzsaq-68" edge="1">
          <mxGeometry width="50" height="50" relative="1" as="geometry">
            <mxPoint y="8" as="sourcePoint" />
            <mxPoint x="8" as="targetPoint" />
          </mxGeometry>
        </mxCell>
        <mxCell id="zMVxvvhwF_4nrSCXzsaq-70" value="" style="endArrow=none;html=1;rounded=0;strokeColor=#FF0000;strokeWidth=3;" parent="zMVxvvhwF_4nrSCXzsaq-68" edge="1">
          <mxGeometry width="50" height="50" relative="1" as="geometry">
            <mxPoint x="8" y="8" as="sourcePoint" />
            <mxPoint as="targetPoint" />
          </mxGeometry>
        </mxCell>
        <mxCell id="zMVxvvhwF_4nrSCXzsaq-71" value="" style="ellipse;whiteSpace=wrap;html=1;aspect=fixed;fillColor=#FFD966;strokeColor=#FFFFFF;" parent="1" vertex="1">
          <mxGeometry x="180" y="295" width="10" height="10" as="geometry" />
        </mxCell>
        <mxCell id="zMVxvvhwF_4nrSCXzsaq-72" value="" style="group;aspect=fixed;" parent="1" vertex="1" connectable="0">
          <mxGeometry x="244" y="290" width="8" height="8" as="geometry" />
        </mxCell>
        <mxCell id="zMVxvvhwF_4nrSCXzsaq-73" value="" style="endArrow=none;html=1;rounded=0;strokeColor=#FF0000;strokeWidth=3;" parent="zMVxvvhwF_4nrSCXzsaq-72" edge="1">
          <mxGeometry width="50" height="50" relative="1" as="geometry">
            <mxPoint y="8" as="sourcePoint" />
            <mxPoint x="8" as="targetPoint" />
          </mxGeometry>
        </mxCell>
        <mxCell id="zMVxvvhwF_4nrSCXzsaq-74" value="" style="endArrow=none;html=1;rounded=0;strokeColor=#FF0000;strokeWidth=3;" parent="zMVxvvhwF_4nrSCXzsaq-72" edge="1">
          <mxGeometry width="50" height="50" relative="1" as="geometry">
            <mxPoint x="8" y="8" as="sourcePoint" />
            <mxPoint as="targetPoint" />
          </mxGeometry>
        </mxCell>
        <mxCell id="zMVxvvhwF_4nrSCXzsaq-76" value="" style="endArrow=none;dashed=1;html=1;rounded=0;fillColor=#1ba1e2;strokeColor=#006EAF;strokeWidth=2;" parent="1" edge="1">
          <mxGeometry width="50" height="50" relative="1" as="geometry">
            <mxPoint x="260" y="410.155029296875" as="sourcePoint" />
            <mxPoint x="210" y="260" as="targetPoint" />
          </mxGeometry>
        </mxCell>
        <mxCell id="zMVxvvhwF_4nrSCXzsaq-77" value="" style="endArrow=classic;html=1;rounded=0;" parent="1" edge="1">
          <mxGeometry width="50" height="50" relative="1" as="geometry">
            <mxPoint x="360" y="399.92" as="sourcePoint" />
            <mxPoint x="360" y="239.92000000000002" as="targetPoint" />
          </mxGeometry>
        </mxCell>
        <mxCell id="zMVxvvhwF_4nrSCXzsaq-78" value="" style="endArrow=classic;html=1;rounded=0;" parent="1" edge="1">
          <mxGeometry width="50" height="50" relative="1" as="geometry">
            <mxPoint x="360" y="399.92" as="sourcePoint" />
            <mxPoint x="520" y="399.92" as="targetPoint" />
          </mxGeometry>
        </mxCell>
        <mxCell id="zMVxvvhwF_4nrSCXzsaq-79" value="" style="ellipse;whiteSpace=wrap;html=1;aspect=fixed;fillColor=#FFD966;strokeColor=#FFFFFF;" parent="1" vertex="1">
          <mxGeometry x="380" y="309.92" width="10" height="10" as="geometry" />
        </mxCell>
        <mxCell id="zMVxvvhwF_4nrSCXzsaq-80" value="" style="ellipse;whiteSpace=wrap;html=1;aspect=fixed;fillColor=#FFD966;strokeColor=#FFFFFF;" parent="1" vertex="1">
          <mxGeometry x="370" y="339.92" width="10" height="10" as="geometry" />
        </mxCell>
        <mxCell id="zMVxvvhwF_4nrSCXzsaq-81" value="" style="ellipse;whiteSpace=wrap;html=1;aspect=fixed;fillColor=#FFD966;strokeColor=#FFFFFF;" parent="1" vertex="1">
          <mxGeometry x="410" y="319.92" width="10" height="10" as="geometry" />
        </mxCell>
        <mxCell id="zMVxvvhwF_4nrSCXzsaq-82" value="" style="ellipse;whiteSpace=wrap;html=1;aspect=fixed;fillColor=#FFD966;strokeColor=#FFFFFF;" parent="1" vertex="1">
          <mxGeometry x="390" y="339.92" width="10" height="10" as="geometry" />
        </mxCell>
        <mxCell id="zMVxvvhwF_4nrSCXzsaq-83" value="" style="ellipse;whiteSpace=wrap;html=1;aspect=fixed;fillColor=#FFD966;strokeColor=#FFFFFF;" parent="1" vertex="1">
          <mxGeometry x="390" y="359.92" width="10" height="10" as="geometry" />
        </mxCell>
        <mxCell id="zMVxvvhwF_4nrSCXzsaq-84" value="" style="ellipse;whiteSpace=wrap;html=1;aspect=fixed;fillColor=#FFD966;strokeColor=#FFFFFF;" parent="1" vertex="1">
          <mxGeometry x="410" y="339.92" width="10" height="10" as="geometry" />
        </mxCell>
        <mxCell id="zMVxvvhwF_4nrSCXzsaq-85" value="" style="ellipse;whiteSpace=wrap;html=1;aspect=fixed;fillColor=#FFD966;strokeColor=#FFFFFF;" parent="1" vertex="1">
          <mxGeometry x="420" y="349.92" width="10" height="10" as="geometry" />
        </mxCell>
        <mxCell id="zMVxvvhwF_4nrSCXzsaq-86" value="" style="ellipse;whiteSpace=wrap;html=1;aspect=fixed;fillColor=#FFD966;strokeColor=#FFFFFF;" parent="1" vertex="1">
          <mxGeometry x="390" y="319.92" width="10" height="10" as="geometry" />
        </mxCell>
        <mxCell id="zMVxvvhwF_4nrSCXzsaq-87" value="" style="ellipse;whiteSpace=wrap;html=1;aspect=fixed;fillColor=#FFD966;strokeColor=#FFFFFF;" parent="1" vertex="1">
          <mxGeometry x="400" y="299.92" width="10" height="10" as="geometry" />
        </mxCell>
        <mxCell id="zMVxvvhwF_4nrSCXzsaq-88" value="" style="group;aspect=fixed;" parent="1" vertex="1" connectable="0">
          <mxGeometry x="474" y="324" width="8" height="8" as="geometry" />
        </mxCell>
        <mxCell id="zMVxvvhwF_4nrSCXzsaq-89" value="" style="endArrow=none;html=1;rounded=0;strokeColor=#FF0000;strokeWidth=3;" parent="zMVxvvhwF_4nrSCXzsaq-88" edge="1">
          <mxGeometry width="50" height="50" relative="1" as="geometry">
            <mxPoint y="8" as="sourcePoint" />
            <mxPoint x="8" as="targetPoint" />
          </mxGeometry>
        </mxCell>
        <mxCell id="zMVxvvhwF_4nrSCXzsaq-90" value="" style="endArrow=none;html=1;rounded=0;strokeColor=#FF0000;strokeWidth=3;" parent="zMVxvvhwF_4nrSCXzsaq-88" edge="1">
          <mxGeometry width="50" height="50" relative="1" as="geometry">
            <mxPoint x="8" y="8" as="sourcePoint" />
            <mxPoint as="targetPoint" />
          </mxGeometry>
        </mxCell>
        <mxCell id="zMVxvvhwF_4nrSCXzsaq-94" value="" style="group;aspect=fixed;" parent="1" vertex="1" connectable="0">
          <mxGeometry x="458" y="312" width="8" height="8" as="geometry" />
        </mxCell>
        <mxCell id="zMVxvvhwF_4nrSCXzsaq-95" value="" style="endArrow=none;html=1;rounded=0;strokeColor=#FF0000;strokeWidth=3;" parent="zMVxvvhwF_4nrSCXzsaq-94" edge="1">
          <mxGeometry width="50" height="50" relative="1" as="geometry">
            <mxPoint y="8" as="sourcePoint" />
            <mxPoint x="8" as="targetPoint" />
          </mxGeometry>
        </mxCell>
        <mxCell id="zMVxvvhwF_4nrSCXzsaq-96" value="" style="endArrow=none;html=1;rounded=0;strokeColor=#FF0000;strokeWidth=3;" parent="zMVxvvhwF_4nrSCXzsaq-94" edge="1">
          <mxGeometry width="50" height="50" relative="1" as="geometry">
            <mxPoint x="8" y="8" as="sourcePoint" />
            <mxPoint as="targetPoint" />
          </mxGeometry>
        </mxCell>
        <mxCell id="zMVxvvhwF_4nrSCXzsaq-100" value="" style="group;aspect=fixed;" parent="1" vertex="1" connectable="0">
          <mxGeometry x="458" y="332" width="8" height="8" as="geometry" />
        </mxCell>
        <mxCell id="zMVxvvhwF_4nrSCXzsaq-101" value="" style="endArrow=none;html=1;rounded=0;strokeColor=#FF0000;strokeWidth=3;" parent="zMVxvvhwF_4nrSCXzsaq-100" edge="1">
          <mxGeometry width="50" height="50" relative="1" as="geometry">
            <mxPoint y="8" as="sourcePoint" />
            <mxPoint x="8" as="targetPoint" />
          </mxGeometry>
        </mxCell>
        <mxCell id="zMVxvvhwF_4nrSCXzsaq-102" value="" style="endArrow=none;html=1;rounded=0;strokeColor=#FF0000;strokeWidth=3;" parent="zMVxvvhwF_4nrSCXzsaq-100" edge="1">
          <mxGeometry width="50" height="50" relative="1" as="geometry">
            <mxPoint x="8" y="8" as="sourcePoint" />
            <mxPoint as="targetPoint" />
          </mxGeometry>
        </mxCell>
        <mxCell id="zMVxvvhwF_4nrSCXzsaq-118" value="" style="ellipse;whiteSpace=wrap;html=1;aspect=fixed;fillColor=#FFD966;strokeColor=#FFFFFF;" parent="1" vertex="1">
          <mxGeometry x="380" y="294.92" width="10" height="10" as="geometry" />
        </mxCell>
        <mxCell id="zMVxvvhwF_4nrSCXzsaq-122" value="" style="endArrow=none;dashed=1;html=1;rounded=0;fillColor=#1ba1e2;strokeColor=#006EAF;strokeWidth=2;" parent="1" edge="1">
          <mxGeometry width="50" height="50" relative="1" as="geometry">
            <mxPoint x="474" y="409.075029296875" as="sourcePoint" />
            <mxPoint x="424" y="258.92" as="targetPoint" />
          </mxGeometry>
        </mxCell>
        <mxCell id="zMVxvvhwF_4nrSCXzsaq-123" value="" style="ellipse;whiteSpace=wrap;html=1;aspect=fixed;fillColor=#FFD966;strokeColor=#FFFFFF;" parent="1" vertex="1">
          <mxGeometry x="430" y="327" width="10" height="10" as="geometry" />
        </mxCell>
        <mxCell id="zMVxvvhwF_4nrSCXzsaq-124" value="" style="ellipse;whiteSpace=wrap;html=1;aspect=fixed;fillColor=#FFD966;strokeColor=#FFFFFF;" parent="1" vertex="1">
          <mxGeometry x="434" y="340" width="10" height="10" as="geometry" />
        </mxCell>
        <mxCell id="zMVxvvhwF_4nrSCXzsaq-125" value="" style="ellipse;whiteSpace=wrap;html=1;aspect=fixed;fillColor=#FFD966;strokeColor=#FFFFFF;" parent="1" vertex="1">
          <mxGeometry x="420" y="303" width="10" height="10" as="geometry" />
        </mxCell>
        <mxCell id="zMVxvvhwF_4nrSCXzsaq-128" value="" style="ellipse;whiteSpace=wrap;html=1;aspect=fixed;fillColor=#FFD966;strokeColor=#FFFFFF;" parent="1" vertex="1">
          <mxGeometry x="409" y="284.92" width="10" height="10" as="geometry" />
        </mxCell>
      </root>
    </mxGraphModel>
  </diagram>
  <diagram id="41ihpq7FvAWeCSl_U55A" name="第 2 页">
    <mxGraphModel dx="1221" dy="787" grid="1" gridSize="10" guides="1" tooltips="1" connect="1" arrows="1" fold="1" page="1" pageScale="1" pageWidth="827" pageHeight="1169" math="0" shadow="0">
      <root>
        <mxCell id="0" />
        <mxCell id="1" parent="0" />
        <mxCell id="QgJhabLDgKiWJIe8iEke-1" value="" style="ellipse;whiteSpace=wrap;html=1;aspect=fixed;fontSize=16;fillColor=none;dashed=1;strokeColor=#000000;strokeWidth=2;" parent="1" vertex="1">
          <mxGeometry x="160" y="160" width="240" height="240" as="geometry" />
        </mxCell>
        <mxCell id="QgJhabLDgKiWJIe8iEke-3" value="" style="ellipse;whiteSpace=wrap;html=1;aspect=fixed;fontSize=16;fillColor=#000000;" parent="1" vertex="1">
          <mxGeometry x="275" y="275" width="10" height="10" as="geometry" />
        </mxCell>
        <mxCell id="QgJhabLDgKiWJIe8iEke-4" value="&lt;b&gt;&lt;font face=&quot;Times New Roman&quot;&gt;o&lt;/font&gt;&lt;/b&gt;" style="text;html=1;strokeColor=none;fillColor=none;align=center;verticalAlign=middle;whiteSpace=wrap;rounded=0;fontSize=16;" parent="1" vertex="1">
          <mxGeometry x="285" y="275" width="15" height="30" as="geometry" />
        </mxCell>
        <mxCell id="QgJhabLDgKiWJIe8iEke-13" value="&lt;b&gt;&lt;font face=&quot;Times New Roman&quot;&gt;p&lt;sub style=&quot;&quot;&gt;1&lt;/sub&gt;&lt;/font&gt;&lt;/b&gt;" style="text;html=1;strokeColor=none;fillColor=none;align=center;verticalAlign=middle;whiteSpace=wrap;rounded=0;fontSize=16;" parent="1" vertex="1">
          <mxGeometry x="305" y="308" width="30" height="30" as="geometry" />
        </mxCell>
        <mxCell id="QgJhabLDgKiWJIe8iEke-14" value="&lt;b&gt;&lt;font face=&quot;Times New Roman&quot;&gt;p&lt;span style=&quot;font-size: 13.3333px;&quot;&gt;&lt;sub&gt;2&lt;/sub&gt;&lt;/span&gt;&lt;/font&gt;&lt;/b&gt;" style="text;html=1;strokeColor=none;fillColor=none;align=center;verticalAlign=middle;whiteSpace=wrap;rounded=0;fontSize=16;" parent="1" vertex="1">
          <mxGeometry x="343" y="250" width="27" height="30" as="geometry" />
        </mxCell>
        <mxCell id="QgJhabLDgKiWJIe8iEke-15" value="&lt;b&gt;&lt;font face=&quot;Times New Roman&quot;&gt;p&lt;span style=&quot;font-size: 13.3333px;&quot;&gt;&lt;sub&gt;3&lt;/sub&gt;&lt;/span&gt;&lt;/font&gt;&lt;/b&gt;" style="text;html=1;strokeColor=none;fillColor=none;align=center;verticalAlign=middle;whiteSpace=wrap;rounded=0;fontSize=16;" parent="1" vertex="1">
          <mxGeometry x="241" y="340" width="18" height="30" as="geometry" />
        </mxCell>
        <mxCell id="QgJhabLDgKiWJIe8iEke-16" value="&lt;b&gt;&lt;font face=&quot;Times New Roman&quot;&gt;p&lt;span style=&quot;font-size: 13.3333px;&quot;&gt;&lt;sub&gt;4&lt;/sub&gt;&lt;/span&gt;&lt;/font&gt;&lt;/b&gt;" style="text;html=1;strokeColor=none;fillColor=none;align=center;verticalAlign=middle;whiteSpace=wrap;rounded=0;fontSize=16;" parent="1" vertex="1">
          <mxGeometry x="225" y="210" width="20" height="30" as="geometry" />
        </mxCell>
        <mxCell id="QgJhabLDgKiWJIe8iEke-17" value="&lt;b&gt;&lt;font face=&quot;Times New Roman&quot;&gt;p&lt;span style=&quot;font-size: 13.3333px;&quot;&gt;&lt;sub&gt;5&lt;/sub&gt;&lt;/span&gt;&lt;/font&gt;&lt;/b&gt;" style="text;html=1;strokeColor=none;fillColor=none;align=center;verticalAlign=middle;whiteSpace=wrap;rounded=0;fontSize=16;" parent="1" vertex="1">
          <mxGeometry x="285" y="130" width="25" height="30" as="geometry" />
        </mxCell>
        <mxCell id="QgJhabLDgKiWJIe8iEke-18" value="&lt;b&gt;&lt;font face=&quot;Times New Roman&quot;&gt;p&lt;span style=&quot;font-size: 13.3333px;&quot;&gt;&lt;sub&gt;6&lt;/sub&gt;&lt;/span&gt;&lt;/font&gt;&lt;/b&gt;" style="text;html=1;strokeColor=none;fillColor=none;align=center;verticalAlign=middle;whiteSpace=wrap;rounded=0;fontSize=16;" parent="1" vertex="1">
          <mxGeometry x="380" y="350" width="20" height="30" as="geometry" />
        </mxCell>
        <mxCell id="QgJhabLDgKiWJIe8iEke-19" value="&lt;b&gt;&lt;font face=&quot;Times New Roman&quot;&gt;p&lt;span style=&quot;font-size: 11.1111px;&quot;&gt;&lt;sub&gt;7&lt;/sub&gt;&lt;/span&gt;&lt;/font&gt;&lt;/b&gt;" style="text;html=1;strokeColor=none;fillColor=none;align=center;verticalAlign=middle;whiteSpace=wrap;rounded=0;fontSize=16;" parent="1" vertex="1">
          <mxGeometry x="210" y="420" width="15" height="30" as="geometry" />
        </mxCell>
        <mxCell id="QgJhabLDgKiWJIe8iEke-21" value="" style="ellipse;whiteSpace=wrap;html=1;aspect=fixed;fontSize=16;fillColor=#CC0000;strokeColor=#CC0000;" parent="1" vertex="1">
          <mxGeometry x="110" y="190" width="10" height="10" as="geometry" />
        </mxCell>
        <mxCell id="QgJhabLDgKiWJIe8iEke-22" value="&lt;b&gt;&lt;font face=&quot;Times New Roman&quot;&gt;p&lt;font size=&quot;1&quot;&gt;&lt;sub&gt;8&lt;/sub&gt;&lt;/font&gt;&lt;/font&gt;&lt;/b&gt;" style="text;html=1;strokeColor=none;fillColor=none;align=center;verticalAlign=middle;whiteSpace=wrap;rounded=0;fontSize=16;" parent="1" vertex="1">
          <mxGeometry x="100" y="200" width="60" height="30" as="geometry" />
        </mxCell>
        <mxCell id="QgJhabLDgKiWJIe8iEke-24" value="" style="ellipse;whiteSpace=wrap;html=1;aspect=fixed;fontSize=16;fillColor=#FFB570;strokeColor=#FFB570;" parent="1" vertex="1">
          <mxGeometry x="282" y="155" width="10" height="10" as="geometry" />
        </mxCell>
        <mxCell id="QgJhabLDgKiWJIe8iEke-26" value="" style="ellipse;whiteSpace=wrap;html=1;aspect=fixed;fontSize=16;fillColor=#FFB570;strokeColor=#FFB570;" parent="1" vertex="1">
          <mxGeometry x="245" y="210" width="10" height="10" as="geometry" />
        </mxCell>
        <mxCell id="QgJhabLDgKiWJIe8iEke-27" value="" style="ellipse;whiteSpace=wrap;html=1;aspect=fixed;fontSize=16;fillColor=#FFB570;strokeColor=#FFB570;" parent="1" vertex="1">
          <mxGeometry x="335" y="250" width="10" height="10" as="geometry" />
        </mxCell>
        <mxCell id="QgJhabLDgKiWJIe8iEke-30" value="" style="ellipse;whiteSpace=wrap;html=1;aspect=fixed;fontSize=16;fillColor=#FFB570;strokeColor=#FFB570;" parent="1" vertex="1">
          <mxGeometry x="300" y="310" width="10" height="10" as="geometry" />
        </mxCell>
        <mxCell id="QgJhabLDgKiWJIe8iEke-31" value="" style="ellipse;whiteSpace=wrap;html=1;aspect=fixed;fontSize=16;fillColor=#FFB570;strokeColor=#FFB570;" parent="1" vertex="1">
          <mxGeometry x="370" y="350" width="10" height="10" as="geometry" />
        </mxCell>
        <mxCell id="QgJhabLDgKiWJIe8iEke-32" value="" style="ellipse;whiteSpace=wrap;html=1;aspect=fixed;fontSize=16;fillColor=#FFB570;strokeColor=#FFB570;" parent="1" vertex="1">
          <mxGeometry x="235" y="340" width="10" height="10" as="geometry" />
        </mxCell>
        <mxCell id="QgJhabLDgKiWJIe8iEke-33" value="" style="ellipse;whiteSpace=wrap;html=1;aspect=fixed;fontSize=16;fillColor=#CC0000;strokeColor=#CC0000;" parent="1" vertex="1">
          <mxGeometry x="200" y="420" width="10" height="10" as="geometry" />
        </mxCell>
        <mxCell id="QgJhabLDgKiWJIe8iEke-34" value="" style="endArrow=classic;html=1;rounded=0;fontSize=12;startSize=8;endSize=8;curved=1;entryX=0.371;entryY=0.007;entryDx=0;entryDy=0;entryPerimeter=0;" parent="1" source="QgJhabLDgKiWJIe8iEke-3" target="QgJhabLDgKiWJIe8iEke-1" edge="1">
          <mxGeometry width="50" height="50" relative="1" as="geometry">
            <mxPoint x="190" y="370" as="sourcePoint" />
            <mxPoint x="240" y="320" as="targetPoint" />
          </mxGeometry>
        </mxCell>
        <mxCell id="QgJhabLDgKiWJIe8iEke-35" value="" style="endArrow=classic;html=1;rounded=0;fontSize=12;startSize=8;endSize=8;curved=1;" parent="1" source="QgJhabLDgKiWJIe8iEke-3" target="QgJhabLDgKiWJIe8iEke-33" edge="1">
          <mxGeometry width="50" height="50" relative="1" as="geometry">
            <mxPoint x="289" y="285" as="sourcePoint" />
            <mxPoint x="240" y="470" as="targetPoint" />
          </mxGeometry>
        </mxCell>
        <mxCell id="QgJhabLDgKiWJIe8iEke-37" value="" style="ellipse;whiteSpace=wrap;html=1;aspect=fixed;fontSize=16;fillColor=#CC0000;strokeColor=#CC0000;" parent="1" vertex="1">
          <mxGeometry x="430" y="260" width="10" height="10" as="geometry" />
        </mxCell>
        <mxCell id="QgJhabLDgKiWJIe8iEke-38" value="&lt;b&gt;&lt;font face=&quot;Times New Roman&quot;&gt;p&lt;font size=&quot;1&quot;&gt;&lt;sub&gt;9&lt;/sub&gt;&lt;/font&gt;&lt;/font&gt;&lt;/b&gt;" style="text;html=1;strokeColor=none;fillColor=none;align=center;verticalAlign=middle;whiteSpace=wrap;rounded=0;fontSize=16;" parent="1" vertex="1">
          <mxGeometry x="440" y="260" width="15" height="30" as="geometry" />
        </mxCell>
      </root>
    </mxGraphModel>
  </diagram>
  <diagram id="zZaBBzXjsiyOO5zcnjRH" name="第 3 页">
    <mxGraphModel dx="1221" dy="774" grid="0" gridSize="10" guides="1" tooltips="1" connect="1" arrows="1" fold="1" page="1" pageScale="1" pageWidth="827" pageHeight="1169" math="1" shadow="0">
      <root>
        <mxCell id="0" />
        <mxCell id="1" parent="0" />
        <mxCell id="fz3putxpxaoxdugT7Cy--139" value="" style="group" parent="1" vertex="1" connectable="0">
          <mxGeometry x="716.75" y="237.75" width="230.5" height="230.5" as="geometry" />
        </mxCell>
        <mxCell id="fz3putxpxaoxdugT7Cy--102" value="" style="whiteSpace=wrap;html=1;aspect=fixed;fontSize=16;strokeColor=none;" parent="fz3putxpxaoxdugT7Cy--139" vertex="1">
          <mxGeometry width="230.5" height="230.5" as="geometry" />
        </mxCell>
        <mxCell id="fz3putxpxaoxdugT7Cy--42" value="" style="ellipse;whiteSpace=wrap;html=1;aspect=fixed;fontSize=16;fillColor=#CC0000;strokeColor=#CC0000;" parent="fz3putxpxaoxdugT7Cy--139" vertex="1">
          <mxGeometry x="48.25" y="30.25" width="10" height="10" as="geometry" />
        </mxCell>
        <mxCell id="fz3putxpxaoxdugT7Cy--43" value="" style="ellipse;whiteSpace=wrap;html=1;aspect=fixed;fontSize=16;fillColor=#CC0000;strokeColor=#CC0000;" parent="fz3putxpxaoxdugT7Cy--139" vertex="1">
          <mxGeometry x="79.25" y="22.25" width="10" height="10" as="geometry" />
        </mxCell>
        <mxCell id="fz3putxpxaoxdugT7Cy--44" value="" style="ellipse;whiteSpace=wrap;html=1;aspect=fixed;fontSize=16;fillColor=#CC0000;strokeColor=#CC0000;" parent="fz3putxpxaoxdugT7Cy--139" vertex="1">
          <mxGeometry x="89.25" y="45.25" width="10" height="10" as="geometry" />
        </mxCell>
        <mxCell id="fz3putxpxaoxdugT7Cy--45" value="" style="ellipse;whiteSpace=wrap;html=1;aspect=fixed;fontSize=16;fillColor=#CC0000;strokeColor=#CC0000;" parent="fz3putxpxaoxdugT7Cy--139" vertex="1">
          <mxGeometry x="56.25" y="54.25" width="10" height="10" as="geometry" />
        </mxCell>
        <mxCell id="fz3putxpxaoxdugT7Cy--46" value="" style="ellipse;whiteSpace=wrap;html=1;aspect=fixed;fontSize=16;fillColor=#CC0000;strokeColor=#CC0000;" parent="fz3putxpxaoxdugT7Cy--139" vertex="1">
          <mxGeometry x="76.25" y="55.25" width="10" height="10" as="geometry" />
        </mxCell>
        <mxCell id="fz3putxpxaoxdugT7Cy--47" value="" style="ellipse;whiteSpace=wrap;html=1;aspect=fixed;fontSize=16;fillColor=#CC0000;strokeColor=#CC0000;" parent="fz3putxpxaoxdugT7Cy--139" vertex="1">
          <mxGeometry x="36.25" y="64.25" width="10" height="10" as="geometry" />
        </mxCell>
        <mxCell id="fz3putxpxaoxdugT7Cy--48" value="" style="ellipse;whiteSpace=wrap;html=1;aspect=fixed;fontSize=16;fillColor=#CC0000;strokeColor=#CC0000;" parent="fz3putxpxaoxdugT7Cy--139" vertex="1">
          <mxGeometry x="99.25" y="32.25" width="10" height="10" as="geometry" />
        </mxCell>
        <mxCell id="fz3putxpxaoxdugT7Cy--49" value="" style="ellipse;whiteSpace=wrap;html=1;aspect=fixed;fontSize=16;fillColor=#CC0000;strokeColor=#CC0000;" parent="fz3putxpxaoxdugT7Cy--139" vertex="1">
          <mxGeometry x="97.25" y="66.25" width="10" height="10" as="geometry" />
        </mxCell>
        <mxCell id="fz3putxpxaoxdugT7Cy--50" value="" style="ellipse;whiteSpace=wrap;html=1;aspect=fixed;fontSize=16;fillColor=#CC0000;strokeColor=#CC0000;" parent="fz3putxpxaoxdugT7Cy--139" vertex="1">
          <mxGeometry x="110.25" y="56.25" width="10" height="10" as="geometry" />
        </mxCell>
        <mxCell id="fz3putxpxaoxdugT7Cy--51" value="" style="ellipse;whiteSpace=wrap;html=1;aspect=fixed;fontSize=16;fillColor=#CC0000;strokeColor=#CC0000;" parent="fz3putxpxaoxdugT7Cy--139" vertex="1">
          <mxGeometry x="117.25" y="41.25" width="10" height="10" as="geometry" />
        </mxCell>
        <mxCell id="fz3putxpxaoxdugT7Cy--52" value="" style="ellipse;whiteSpace=wrap;html=1;aspect=fixed;fontSize=16;fillColor=#CC0000;strokeColor=#CC0000;" parent="fz3putxpxaoxdugT7Cy--139" vertex="1">
          <mxGeometry x="120.25" y="80.25" width="10" height="10" as="geometry" />
        </mxCell>
        <mxCell id="fz3putxpxaoxdugT7Cy--53" value="" style="ellipse;whiteSpace=wrap;html=1;aspect=fixed;fontSize=16;fillColor=#CC0000;strokeColor=#CC0000;" parent="fz3putxpxaoxdugT7Cy--139" vertex="1">
          <mxGeometry x="127.25" y="66.25" width="10" height="10" as="geometry" />
        </mxCell>
        <mxCell id="fz3putxpxaoxdugT7Cy--54" value="" style="ellipse;whiteSpace=wrap;html=1;aspect=fixed;fontSize=16;fillColor=#CC0000;strokeColor=#CC0000;" parent="fz3putxpxaoxdugT7Cy--139" vertex="1">
          <mxGeometry x="137.25" y="56.25" width="10" height="10" as="geometry" />
        </mxCell>
        <mxCell id="fz3putxpxaoxdugT7Cy--55" value="" style="ellipse;whiteSpace=wrap;html=1;aspect=fixed;fontSize=16;fillColor=#CC0000;strokeColor=#CC0000;" parent="fz3putxpxaoxdugT7Cy--139" vertex="1">
          <mxGeometry x="142.25" y="86.25" width="10" height="10" as="geometry" />
        </mxCell>
        <mxCell id="fz3putxpxaoxdugT7Cy--56" value="" style="ellipse;whiteSpace=wrap;html=1;aspect=fixed;fontSize=16;fillColor=#CC0000;strokeColor=#CC0000;" parent="fz3putxpxaoxdugT7Cy--139" vertex="1">
          <mxGeometry x="150.25" y="73.25" width="10" height="10" as="geometry" />
        </mxCell>
        <mxCell id="fz3putxpxaoxdugT7Cy--57" value="" style="ellipse;whiteSpace=wrap;html=1;aspect=fixed;fontSize=16;fillColor=#CC0000;strokeColor=#CC0000;" parent="fz3putxpxaoxdugT7Cy--139" vertex="1">
          <mxGeometry x="137.25" y="35.25" width="10" height="10" as="geometry" />
        </mxCell>
        <mxCell id="fz3putxpxaoxdugT7Cy--58" value="" style="ellipse;whiteSpace=wrap;html=1;aspect=fixed;fontSize=16;fillColor=#CC0000;strokeColor=#CC0000;" parent="fz3putxpxaoxdugT7Cy--139" vertex="1">
          <mxGeometry x="66.25" y="35.25" width="10" height="10" as="geometry" />
        </mxCell>
        <mxCell id="fz3putxpxaoxdugT7Cy--64" value="" style="ellipse;whiteSpace=wrap;html=1;aspect=fixed;fontSize=16;fillColor=#2B64FF;strokeColor=#2B64FF;" parent="fz3putxpxaoxdugT7Cy--139" vertex="1">
          <mxGeometry x="32" y="164.25" width="10" height="10" as="geometry" />
        </mxCell>
        <mxCell id="fz3putxpxaoxdugT7Cy--65" value="" style="ellipse;whiteSpace=wrap;html=1;aspect=fixed;fontSize=16;fillColor=#2B64FF;strokeColor=#2B64FF;" parent="fz3putxpxaoxdugT7Cy--139" vertex="1">
          <mxGeometry x="26.25" y="120.25" width="10" height="10" as="geometry" />
        </mxCell>
        <mxCell id="fz3putxpxaoxdugT7Cy--66" value="" style="ellipse;whiteSpace=wrap;html=1;aspect=fixed;fontSize=16;fillColor=#2B64FF;strokeColor=#2B64FF;" parent="fz3putxpxaoxdugT7Cy--139" vertex="1">
          <mxGeometry x="57.25" y="112.25" width="10" height="10" as="geometry" />
        </mxCell>
        <mxCell id="fz3putxpxaoxdugT7Cy--67" value="" style="ellipse;whiteSpace=wrap;html=1;aspect=fixed;fontSize=16;fillColor=#2B64FF;strokeColor=#2B64FF;" parent="fz3putxpxaoxdugT7Cy--139" vertex="1">
          <mxGeometry x="67.25" y="135.25" width="10" height="10" as="geometry" />
        </mxCell>
        <mxCell id="fz3putxpxaoxdugT7Cy--68" value="" style="ellipse;whiteSpace=wrap;html=1;aspect=fixed;fontSize=16;fillColor=#2B64FF;strokeColor=#2B64FF;" parent="fz3putxpxaoxdugT7Cy--139" vertex="1">
          <mxGeometry x="34.25" y="144.25" width="10" height="10" as="geometry" />
        </mxCell>
        <mxCell id="fz3putxpxaoxdugT7Cy--69" value="" style="ellipse;whiteSpace=wrap;html=1;aspect=fixed;fontSize=16;fillColor=#2B64FF;strokeColor=#2B64FF;" parent="fz3putxpxaoxdugT7Cy--139" vertex="1">
          <mxGeometry x="54.25" y="145.25" width="10" height="10" as="geometry" />
        </mxCell>
        <mxCell id="fz3putxpxaoxdugT7Cy--70" value="" style="ellipse;whiteSpace=wrap;html=1;aspect=fixed;fontSize=16;fillColor=#2B64FF;strokeColor=#2B64FF;" parent="fz3putxpxaoxdugT7Cy--139" vertex="1">
          <mxGeometry x="14.25" y="154.25" width="10" height="10" as="geometry" />
        </mxCell>
        <mxCell id="fz3putxpxaoxdugT7Cy--71" value="" style="ellipse;whiteSpace=wrap;html=1;aspect=fixed;fontSize=16;fillColor=#2B64FF;strokeColor=#2B64FF;" parent="fz3putxpxaoxdugT7Cy--139" vertex="1">
          <mxGeometry x="77.25" y="122.25" width="10" height="10" as="geometry" />
        </mxCell>
        <mxCell id="fz3putxpxaoxdugT7Cy--72" value="" style="ellipse;whiteSpace=wrap;html=1;aspect=fixed;fontSize=16;fillColor=#2B64FF;strokeColor=#2B64FF;" parent="fz3putxpxaoxdugT7Cy--139" vertex="1">
          <mxGeometry x="75.25" y="156.25" width="10" height="10" as="geometry" />
        </mxCell>
        <mxCell id="fz3putxpxaoxdugT7Cy--73" value="" style="ellipse;whiteSpace=wrap;html=1;aspect=fixed;fontSize=16;fillColor=#2B64FF;strokeColor=#2B64FF;" parent="fz3putxpxaoxdugT7Cy--139" vertex="1">
          <mxGeometry x="88.25" y="146.25" width="10" height="10" as="geometry" />
        </mxCell>
        <mxCell id="fz3putxpxaoxdugT7Cy--74" value="" style="ellipse;whiteSpace=wrap;html=1;aspect=fixed;fontSize=16;fillColor=#2B64FF;strokeColor=#2B64FF;" parent="fz3putxpxaoxdugT7Cy--139" vertex="1">
          <mxGeometry x="95.25" y="131.25" width="10" height="10" as="geometry" />
        </mxCell>
        <mxCell id="fz3putxpxaoxdugT7Cy--75" value="" style="ellipse;whiteSpace=wrap;html=1;aspect=fixed;fontSize=16;fillColor=#2B64FF;strokeColor=#2B64FF;" parent="fz3putxpxaoxdugT7Cy--139" vertex="1">
          <mxGeometry x="98.25" y="170.25" width="10" height="10" as="geometry" />
        </mxCell>
        <mxCell id="fz3putxpxaoxdugT7Cy--76" value="" style="ellipse;whiteSpace=wrap;html=1;aspect=fixed;fontSize=16;fillColor=#2B64FF;strokeColor=#2B64FF;" parent="fz3putxpxaoxdugT7Cy--139" vertex="1">
          <mxGeometry x="105.25" y="156.25" width="10" height="10" as="geometry" />
        </mxCell>
        <mxCell id="fz3putxpxaoxdugT7Cy--77" value="" style="ellipse;whiteSpace=wrap;html=1;aspect=fixed;fontSize=16;fillColor=#2B64FF;strokeColor=#2B64FF;" parent="fz3putxpxaoxdugT7Cy--139" vertex="1">
          <mxGeometry x="115.25" y="146.25" width="10" height="10" as="geometry" />
        </mxCell>
        <mxCell id="fz3putxpxaoxdugT7Cy--78" value="" style="ellipse;whiteSpace=wrap;html=1;aspect=fixed;fontSize=16;fillColor=#2B64FF;strokeColor=#2B64FF;" parent="fz3putxpxaoxdugT7Cy--139" vertex="1">
          <mxGeometry x="120.25" y="176.25" width="10" height="10" as="geometry" />
        </mxCell>
        <mxCell id="fz3putxpxaoxdugT7Cy--79" value="" style="ellipse;whiteSpace=wrap;html=1;aspect=fixed;fontSize=16;fillColor=#2B64FF;strokeColor=#2B64FF;" parent="fz3putxpxaoxdugT7Cy--139" vertex="1">
          <mxGeometry x="128.25" y="163.25" width="10" height="10" as="geometry" />
        </mxCell>
        <mxCell id="fz3putxpxaoxdugT7Cy--80" value="" style="ellipse;whiteSpace=wrap;html=1;aspect=fixed;fontSize=16;fillColor=#2B64FF;strokeColor=#2B64FF;" parent="fz3putxpxaoxdugT7Cy--139" vertex="1">
          <mxGeometry x="115.25" y="125.25" width="10" height="10" as="geometry" />
        </mxCell>
        <mxCell id="fz3putxpxaoxdugT7Cy--81" value="" style="ellipse;whiteSpace=wrap;html=1;aspect=fixed;fontSize=16;fillColor=#2B64FF;strokeColor=#2B64FF;" parent="fz3putxpxaoxdugT7Cy--139" vertex="1">
          <mxGeometry x="44.25" y="125.25" width="10" height="10" as="geometry" />
        </mxCell>
        <mxCell id="fz3putxpxaoxdugT7Cy--82" value="" style="ellipse;whiteSpace=wrap;html=1;aspect=fixed;fontSize=16;fillColor=#CC0000;strokeColor=#CC0000;" parent="fz3putxpxaoxdugT7Cy--139" vertex="1">
          <mxGeometry x="155.25" y="104.25" width="10" height="10" as="geometry" />
        </mxCell>
        <mxCell id="fz3putxpxaoxdugT7Cy--83" value="" style="ellipse;whiteSpace=wrap;html=1;aspect=fixed;fontSize=16;fillColor=#CC0000;strokeColor=#CC0000;" parent="fz3putxpxaoxdugT7Cy--139" vertex="1">
          <mxGeometry x="167.25" y="90.25" width="10" height="10" as="geometry" />
        </mxCell>
        <mxCell id="fz3putxpxaoxdugT7Cy--84" value="" style="ellipse;whiteSpace=wrap;html=1;aspect=fixed;fontSize=16;fillColor=#CC0000;strokeColor=#CC0000;" parent="fz3putxpxaoxdugT7Cy--139" vertex="1">
          <mxGeometry x="177.25" y="80.25" width="10" height="10" as="geometry" />
        </mxCell>
        <mxCell id="fz3putxpxaoxdugT7Cy--85" value="" style="ellipse;whiteSpace=wrap;html=1;aspect=fixed;fontSize=16;fillColor=#CC0000;strokeColor=#CC0000;" parent="fz3putxpxaoxdugT7Cy--139" vertex="1">
          <mxGeometry x="182.25" y="110.25" width="10" height="10" as="geometry" />
        </mxCell>
        <mxCell id="fz3putxpxaoxdugT7Cy--86" value="" style="ellipse;whiteSpace=wrap;html=1;aspect=fixed;fontSize=16;fillColor=#CC0000;strokeColor=#CC0000;" parent="fz3putxpxaoxdugT7Cy--139" vertex="1">
          <mxGeometry x="190.25" y="97.25" width="10" height="10" as="geometry" />
        </mxCell>
        <mxCell id="fz3putxpxaoxdugT7Cy--87" value="" style="ellipse;whiteSpace=wrap;html=1;aspect=fixed;fontSize=16;fillColor=#CC0000;strokeColor=#CC0000;" parent="fz3putxpxaoxdugT7Cy--139" vertex="1">
          <mxGeometry x="177.25" y="59.25" width="10" height="10" as="geometry" />
        </mxCell>
        <mxCell id="fz3putxpxaoxdugT7Cy--88" value="" style="ellipse;whiteSpace=wrap;html=1;aspect=fixed;fontSize=16;fillColor=#CC0000;strokeColor=#CC0000;" parent="fz3putxpxaoxdugT7Cy--139" vertex="1">
          <mxGeometry x="172.25" y="125.25" width="10" height="10" as="geometry" />
        </mxCell>
        <mxCell id="fz3putxpxaoxdugT7Cy--96" value="" style="ellipse;whiteSpace=wrap;html=1;aspect=fixed;fontSize=16;fillColor=#CC0000;strokeColor=#CC0000;" parent="fz3putxpxaoxdugT7Cy--139" vertex="1">
          <mxGeometry x="187.25" y="145.25" width="10" height="10" as="geometry" />
        </mxCell>
        <mxCell id="fz3putxpxaoxdugT7Cy--97" value="" style="ellipse;whiteSpace=wrap;html=1;aspect=fixed;fontSize=16;fillColor=#CC0000;strokeColor=#CC0000;" parent="fz3putxpxaoxdugT7Cy--139" vertex="1">
          <mxGeometry x="197.25" y="135.25" width="10" height="10" as="geometry" />
        </mxCell>
        <mxCell id="fz3putxpxaoxdugT7Cy--98" value="" style="ellipse;whiteSpace=wrap;html=1;aspect=fixed;fontSize=16;fillColor=#CC0000;strokeColor=#CC0000;" parent="fz3putxpxaoxdugT7Cy--139" vertex="1">
          <mxGeometry x="192.25" y="165.25" width="10" height="10" as="geometry" />
        </mxCell>
        <mxCell id="fz3putxpxaoxdugT7Cy--99" value="" style="ellipse;whiteSpace=wrap;html=1;aspect=fixed;fontSize=16;fillColor=#CC0000;strokeColor=#CC0000;" parent="fz3putxpxaoxdugT7Cy--139" vertex="1">
          <mxGeometry x="210.25" y="152.25" width="10" height="10" as="geometry" />
        </mxCell>
        <mxCell id="fz3putxpxaoxdugT7Cy--100" value="" style="ellipse;whiteSpace=wrap;html=1;aspect=fixed;fontSize=16;fillColor=#CC0000;strokeColor=#CC0000;" parent="fz3putxpxaoxdugT7Cy--139" vertex="1">
          <mxGeometry x="197.25" y="114.25" width="10" height="10" as="geometry" />
        </mxCell>
        <mxCell id="fz3putxpxaoxdugT7Cy--101" value="" style="ellipse;whiteSpace=wrap;html=1;aspect=fixed;fontSize=16;fillColor=#CC0000;strokeColor=#CC0000;" parent="fz3putxpxaoxdugT7Cy--139" vertex="1">
          <mxGeometry x="210.25" y="173.25" width="10" height="10" as="geometry" />
        </mxCell>
        <mxCell id="fz3putxpxaoxdugT7Cy--103" value="" style="ellipse;whiteSpace=wrap;html=1;aspect=fixed;fontSize=16;fillColor=#9933FF;strokeColor=#9933FF;" parent="fz3putxpxaoxdugT7Cy--139" vertex="1">
          <mxGeometry x="147.25" y="211.25" width="10" height="10" as="geometry" />
        </mxCell>
        <mxCell id="fz3putxpxaoxdugT7Cy--104" value="" style="ellipse;whiteSpace=wrap;html=1;aspect=fixed;fontSize=16;fillColor=#9933FF;strokeColor=#9933FF;" parent="fz3putxpxaoxdugT7Cy--139" vertex="1">
          <mxGeometry x="167.25" y="208.25" width="10" height="10" as="geometry" />
        </mxCell>
        <mxCell id="fz3putxpxaoxdugT7Cy--105" value="" style="ellipse;whiteSpace=wrap;html=1;aspect=fixed;fontSize=16;fillColor=#9933FF;strokeColor=#9933FF;" parent="fz3putxpxaoxdugT7Cy--139" vertex="1">
          <mxGeometry x="190.25" y="15.25" width="10" height="10" as="geometry" />
        </mxCell>
        <mxCell id="fz3putxpxaoxdugT7Cy--107" value="" style="ellipse;whiteSpace=wrap;html=1;aspect=fixed;fontSize=16;fillColor=#fff2cc;strokeColor=#d6b656;opacity=50;strokeWidth=3;" parent="fz3putxpxaoxdugT7Cy--139" vertex="1">
          <mxGeometry x="32.75" y="28.75" width="54.5" height="54.5" as="geometry" />
        </mxCell>
        <mxCell id="fz3putxpxaoxdugT7Cy--122" value="" style="ellipse;whiteSpace=wrap;html=1;aspect=fixed;fontSize=16;fillColor=#fff2cc;strokeColor=#d6b656;opacity=50;strokeWidth=3;" parent="fz3putxpxaoxdugT7Cy--139" vertex="1">
          <mxGeometry x="40.75" y="15.25" width="54.5" height="54.5" as="geometry" />
        </mxCell>
        <mxCell id="fz3putxpxaoxdugT7Cy--123" value="" style="ellipse;whiteSpace=wrap;html=1;aspect=fixed;fontSize=16;fillColor=#fff2cc;strokeColor=#d6b656;opacity=50;strokeWidth=3;" parent="fz3putxpxaoxdugT7Cy--139" vertex="1">
          <mxGeometry x="54.75" y="31.75" width="54.5" height="54.5" as="geometry" />
        </mxCell>
        <mxCell id="fz3putxpxaoxdugT7Cy--124" value="" style="ellipse;whiteSpace=wrap;html=1;aspect=fixed;fontSize=16;fillColor=#fff2cc;strokeColor=#d6b656;opacity=50;strokeWidth=3;" parent="fz3putxpxaoxdugT7Cy--139" vertex="1">
          <mxGeometry x="87.75" y="25.25" width="54.5" height="54.5" as="geometry" />
        </mxCell>
        <mxCell id="fz3putxpxaoxdugT7Cy--125" value="" style="ellipse;whiteSpace=wrap;html=1;aspect=fixed;fontSize=16;fillColor=#fff2cc;strokeColor=#d6b656;opacity=50;strokeWidth=3;" parent="fz3putxpxaoxdugT7Cy--139" vertex="1">
          <mxGeometry x="117.75" y="41.75" width="54.5" height="54.5" as="geometry" />
        </mxCell>
        <mxCell id="fz3putxpxaoxdugT7Cy--126" value="" style="ellipse;whiteSpace=wrap;html=1;aspect=fixed;fontSize=16;fillColor=#fff2cc;strokeColor=#d6b656;opacity=50;strokeWidth=3;" parent="fz3putxpxaoxdugT7Cy--139" vertex="1">
          <mxGeometry x="120" y="63.25" width="54.5" height="54.5" as="geometry" />
        </mxCell>
        <mxCell id="fz3putxpxaoxdugT7Cy--127" value="" style="ellipse;whiteSpace=wrap;html=1;aspect=fixed;fontSize=16;fillColor=#fff2cc;strokeColor=#d6b656;opacity=50;strokeWidth=3;" parent="fz3putxpxaoxdugT7Cy--139" vertex="1">
          <mxGeometry x="155" y="61.25" width="54.5" height="54.5" as="geometry" />
        </mxCell>
        <mxCell id="fz3putxpxaoxdugT7Cy--128" value="" style="ellipse;whiteSpace=wrap;html=1;aspect=fixed;fontSize=16;fillColor=#fff2cc;strokeColor=#d6b656;opacity=50;strokeWidth=3;" parent="fz3putxpxaoxdugT7Cy--139" vertex="1">
          <mxGeometry x="170" y="143" width="54.5" height="54.5" as="geometry" />
        </mxCell>
        <mxCell id="fz3putxpxaoxdugT7Cy--129" value="" style="ellipse;whiteSpace=wrap;html=1;aspect=fixed;fontSize=16;fillColor=#fff2cc;strokeColor=#d6b656;opacity=50;strokeWidth=3;" parent="fz3putxpxaoxdugT7Cy--139" vertex="1">
          <mxGeometry x="160.25" y="90.25" width="54.5" height="54.5" as="geometry" />
        </mxCell>
        <mxCell id="fz3putxpxaoxdugT7Cy--130" value="" style="ellipse;whiteSpace=wrap;html=1;aspect=fixed;fontSize=16;fillColor=#fff2cc;strokeColor=#d6b656;opacity=50;strokeWidth=3;" parent="fz3putxpxaoxdugT7Cy--139" vertex="1">
          <mxGeometry x="167.25" y="128.75" width="54.5" height="54.5" as="geometry" />
        </mxCell>
        <mxCell id="fz3putxpxaoxdugT7Cy--131" value="" style="ellipse;whiteSpace=wrap;html=1;aspect=fixed;fontSize=16;fillColor=#fff2cc;strokeColor=#d6b656;opacity=50;strokeWidth=3;" parent="fz3putxpxaoxdugT7Cy--139" vertex="1">
          <mxGeometry x="130.25" y="77.75" width="54.5" height="54.5" as="geometry" />
        </mxCell>
        <mxCell id="fz3putxpxaoxdugT7Cy--132" value="" style="ellipse;whiteSpace=wrap;html=1;aspect=fixed;fontSize=16;fillColor=#f5f5f5;strokeColor=#666666;opacity=50;strokeWidth=3;fontColor=#333333;" parent="fz3putxpxaoxdugT7Cy--139" vertex="1">
          <mxGeometry x="9.75" y="124.25" width="54.5" height="54.5" as="geometry" />
        </mxCell>
        <mxCell id="fz3putxpxaoxdugT7Cy--133" value="" style="ellipse;whiteSpace=wrap;html=1;aspect=fixed;fontSize=16;fillColor=#f5f5f5;strokeColor=#666666;opacity=50;strokeWidth=3;fontColor=#333333;" parent="fz3putxpxaoxdugT7Cy--139" vertex="1">
          <mxGeometry x="22" y="107.25" width="54.5" height="54.5" as="geometry" />
        </mxCell>
        <mxCell id="fz3putxpxaoxdugT7Cy--134" value="" style="ellipse;whiteSpace=wrap;html=1;aspect=fixed;fontSize=16;fillColor=#f5f5f5;strokeColor=#666666;opacity=50;strokeWidth=3;fontColor=#333333;" parent="fz3putxpxaoxdugT7Cy--139" vertex="1">
          <mxGeometry x="32" y="121.75" width="54.5" height="54.5" as="geometry" />
        </mxCell>
        <mxCell id="fz3putxpxaoxdugT7Cy--135" value="" style="ellipse;whiteSpace=wrap;html=1;aspect=fixed;fontSize=16;fillColor=#f5f5f5;strokeColor=#666666;opacity=50;strokeWidth=3;fontColor=#333333;" parent="fz3putxpxaoxdugT7Cy--139" vertex="1">
          <mxGeometry x="58.25" y="107.25" width="54.5" height="54.5" as="geometry" />
        </mxCell>
        <mxCell id="fz3putxpxaoxdugT7Cy--136" value="" style="ellipse;whiteSpace=wrap;html=1;aspect=fixed;fontSize=16;fillColor=#f5f5f5;strokeColor=#666666;opacity=50;strokeWidth=3;fontColor=#333333;" parent="fz3putxpxaoxdugT7Cy--139" vertex="1">
          <mxGeometry x="88" y="114.25" width="54.5" height="54.5" as="geometry" />
        </mxCell>
        <mxCell id="fz3putxpxaoxdugT7Cy--137" value="" style="ellipse;whiteSpace=wrap;html=1;aspect=fixed;fontSize=16;fillColor=#f5f5f5;strokeColor=#666666;opacity=50;strokeWidth=3;fontColor=#333333;" parent="fz3putxpxaoxdugT7Cy--139" vertex="1">
          <mxGeometry x="67.25" y="128.75" width="54.5" height="54.5" as="geometry" />
        </mxCell>
        <mxCell id="fz3putxpxaoxdugT7Cy--138" value="" style="ellipse;whiteSpace=wrap;html=1;aspect=fixed;fontSize=16;fillColor=#f5f5f5;strokeColor=#666666;opacity=50;strokeWidth=3;fontColor=#333333;" parent="fz3putxpxaoxdugT7Cy--139" vertex="1">
          <mxGeometry x="82.75" y="135.25" width="54.5" height="54.5" as="geometry" />
        </mxCell>
        <mxCell id="fz3putxpxaoxdugT7Cy--140" value="" style="group" parent="1" vertex="1" connectable="0">
          <mxGeometry x="347" y="209" width="202" height="202" as="geometry" />
        </mxCell>
        <mxCell id="fz3putxpxaoxdugT7Cy--35" value="" style="whiteSpace=wrap;html=1;aspect=fixed;fontSize=16;strokeColor=none;" parent="fz3putxpxaoxdugT7Cy--140" vertex="1">
          <mxGeometry width="202" height="202" as="geometry" />
        </mxCell>
        <mxCell id="fz3putxpxaoxdugT7Cy--23" value="" style="ellipse;whiteSpace=wrap;html=1;aspect=fixed;fontSize=16;fillColor=#fff2cc;strokeColor=#d6b656;opacity=50;strokeWidth=3;" parent="fz3putxpxaoxdugT7Cy--140" vertex="1">
          <mxGeometry x="67.5" y="15.5" width="81" height="81" as="geometry" />
        </mxCell>
        <mxCell id="fz3putxpxaoxdugT7Cy--13" value="" style="ellipse;whiteSpace=wrap;html=1;aspect=fixed;fontSize=16;fillColor=#fff2cc;strokeColor=#d6b656;opacity=50;strokeWidth=3;" parent="fz3putxpxaoxdugT7Cy--140" vertex="1">
          <mxGeometry x="73.5" y="41.5" width="81" height="81" as="geometry" />
        </mxCell>
        <mxCell id="fz3putxpxaoxdugT7Cy--1" value="" style="ellipse;whiteSpace=wrap;html=1;aspect=fixed;fontSize=16;fillColor=#CC0000;strokeColor=#CC0000;" parent="fz3putxpxaoxdugT7Cy--140" vertex="1">
          <mxGeometry x="76" y="41.5" width="10" height="10" as="geometry" />
        </mxCell>
        <mxCell id="fz3putxpxaoxdugT7Cy--2" value="" style="ellipse;whiteSpace=wrap;html=1;aspect=fixed;fontSize=16;fillColor=#CC0000;strokeColor=#CC0000;" parent="fz3putxpxaoxdugT7Cy--140" vertex="1">
          <mxGeometry x="103" y="51" width="10" height="10" as="geometry" />
        </mxCell>
        <mxCell id="fz3putxpxaoxdugT7Cy--3" value="" style="ellipse;whiteSpace=wrap;html=1;aspect=fixed;fontSize=16;fillColor=#CC0000;strokeColor=#CC0000;" parent="fz3putxpxaoxdugT7Cy--140" vertex="1">
          <mxGeometry x="79" y="92" width="10" height="10" as="geometry" />
        </mxCell>
        <mxCell id="fz3putxpxaoxdugT7Cy--4" value="" style="ellipse;whiteSpace=wrap;html=1;aspect=fixed;fontSize=16;fillColor=#CC0000;strokeColor=#CC0000;" parent="fz3putxpxaoxdugT7Cy--140" vertex="1">
          <mxGeometry x="136" y="83" width="10" height="10" as="geometry" />
        </mxCell>
        <mxCell id="fz3putxpxaoxdugT7Cy--5" value="" style="ellipse;whiteSpace=wrap;html=1;aspect=fixed;fontSize=16;fillColor=#CC0000;strokeColor=#CC0000;" parent="fz3putxpxaoxdugT7Cy--140" vertex="1">
          <mxGeometry x="119" y="106" width="10" height="10" as="geometry" />
        </mxCell>
        <mxCell id="fz3putxpxaoxdugT7Cy--6" value="" style="ellipse;whiteSpace=wrap;html=1;aspect=fixed;fontSize=16;fillColor=#CC0000;strokeColor=#CC0000;" parent="fz3putxpxaoxdugT7Cy--140" vertex="1">
          <mxGeometry x="125" y="28" width="10" height="10" as="geometry" />
        </mxCell>
        <mxCell id="fz3putxpxaoxdugT7Cy--7" value="" style="ellipse;whiteSpace=wrap;html=1;aspect=fixed;fontSize=16;fillColor=#CC0000;strokeColor=#CC0000;" parent="fz3putxpxaoxdugT7Cy--140" vertex="1">
          <mxGeometry x="109" y="77" width="10" height="10" as="geometry" />
        </mxCell>
        <mxCell id="fz3putxpxaoxdugT7Cy--8" value="" style="ellipse;whiteSpace=wrap;html=1;aspect=fixed;fontSize=16;fillColor=none;strokeColor=#2B64FF;" parent="fz3putxpxaoxdugT7Cy--140" vertex="1">
          <mxGeometry x="100" y="48" width="16" height="16" as="geometry" />
        </mxCell>
        <mxCell id="fz3putxpxaoxdugT7Cy--9" value="" style="ellipse;whiteSpace=wrap;html=1;aspect=fixed;fontSize=16;fillColor=#CC0000;strokeColor=#CC0000;" parent="fz3putxpxaoxdugT7Cy--140" vertex="1">
          <mxGeometry x="137" y="4" width="10" height="10" as="geometry" />
        </mxCell>
        <mxCell id="fz3putxpxaoxdugT7Cy--10" value="" style="ellipse;whiteSpace=wrap;html=1;aspect=fixed;fontSize=16;fillColor=#CC0000;strokeColor=#CC0000;" parent="fz3putxpxaoxdugT7Cy--140" vertex="1">
          <mxGeometry x="162" y="43" width="10" height="10" as="geometry" />
        </mxCell>
        <mxCell id="fz3putxpxaoxdugT7Cy--11" value="" style="ellipse;whiteSpace=wrap;html=1;aspect=fixed;fontSize=16;fillColor=#CC0000;strokeColor=#CC0000;" parent="fz3putxpxaoxdugT7Cy--140" vertex="1">
          <mxGeometry x="159" y="96" width="10" height="10" as="geometry" />
        </mxCell>
        <mxCell id="fz3putxpxaoxdugT7Cy--15" value="" style="endArrow=classic;html=1;fontSize=12;entryX=0.599;entryY=0.034;entryDx=0;entryDy=0;entryPerimeter=0;curved=1;strokeWidth=2;" parent="fz3putxpxaoxdugT7Cy--140" source="fz3putxpxaoxdugT7Cy--7" target="fz3putxpxaoxdugT7Cy--13" edge="1">
          <mxGeometry width="50" height="50" relative="1" as="geometry">
            <mxPoint x="130" y="84" as="sourcePoint" />
            <mxPoint x="180" y="34" as="targetPoint" />
          </mxGeometry>
        </mxCell>
        <mxCell id="fz3putxpxaoxdugT7Cy--16" value="&lt;font style=&quot;font-size: 14px;&quot;&gt;$$R=1$$&lt;/font&gt;" style="text;html=1;strokeColor=none;fillColor=none;align=center;verticalAlign=middle;whiteSpace=wrap;rounded=0;fontSize=16;" parent="fz3putxpxaoxdugT7Cy--140" vertex="1">
          <mxGeometry x="119" y="53" width="53" height="26" as="geometry" />
        </mxCell>
        <mxCell id="fz3putxpxaoxdugT7Cy--19" value="" style="ellipse;whiteSpace=wrap;html=1;aspect=fixed;fontSize=16;fillColor=none;strokeColor=#2B64FF;" parent="fz3putxpxaoxdugT7Cy--140" vertex="1">
          <mxGeometry x="76" y="89" width="16" height="16" as="geometry" />
        </mxCell>
        <mxCell id="fz3putxpxaoxdugT7Cy--20" value="" style="ellipse;whiteSpace=wrap;html=1;aspect=fixed;fontSize=16;fillColor=none;strokeColor=#2B64FF;" parent="fz3putxpxaoxdugT7Cy--140" vertex="1">
          <mxGeometry x="116" y="103" width="16" height="16" as="geometry" />
        </mxCell>
        <mxCell id="fz3putxpxaoxdugT7Cy--21" value="" style="ellipse;whiteSpace=wrap;html=1;aspect=fixed;fontSize=16;fillColor=none;strokeColor=#2B64FF;" parent="fz3putxpxaoxdugT7Cy--140" vertex="1">
          <mxGeometry x="133" y="80" width="16" height="16" as="geometry" />
        </mxCell>
        <mxCell id="fz3putxpxaoxdugT7Cy--22" value="" style="ellipse;whiteSpace=wrap;html=1;aspect=fixed;fontSize=16;fillColor=none;strokeColor=#67AB9F;" parent="fz3putxpxaoxdugT7Cy--140" vertex="1">
          <mxGeometry x="106" y="74" width="16" height="16" as="geometry" />
        </mxCell>
        <mxCell id="fz3putxpxaoxdugT7Cy--24" value="&lt;font style=&quot;font-size: 12px;&quot;&gt;&lt;b&gt;核心点&lt;/b&gt;&lt;/font&gt;" style="text;html=1;strokeColor=none;fillColor=none;align=center;verticalAlign=middle;whiteSpace=wrap;rounded=0;fontSize=16;" parent="fz3putxpxaoxdugT7Cy--140" vertex="1">
          <mxGeometry x="6" y="54" width="38" height="20" as="geometry" />
        </mxCell>
        <mxCell id="fz3putxpxaoxdugT7Cy--25" value="&lt;span style=&quot;font-size: 12px;&quot;&gt;&lt;b&gt;边界点&lt;/b&gt;&lt;/span&gt;" style="text;html=1;strokeColor=none;fillColor=none;align=center;verticalAlign=middle;whiteSpace=wrap;rounded=0;fontSize=16;" parent="fz3putxpxaoxdugT7Cy--140" vertex="1">
          <mxGeometry x="154.5" y="138" width="42" height="14" as="geometry" />
        </mxCell>
        <mxCell id="fz3putxpxaoxdugT7Cy--26" value="&lt;font style=&quot;font-size: 14px;&quot;&gt;$$MinPts=5$$&lt;/font&gt;" style="text;html=1;strokeColor=none;fillColor=none;align=center;verticalAlign=middle;whiteSpace=wrap;rounded=0;fontSize=16;" parent="fz3putxpxaoxdugT7Cy--140" vertex="1">
          <mxGeometry x="34" y="119" width="53" height="26" as="geometry" />
        </mxCell>
        <mxCell id="fz3putxpxaoxdugT7Cy--27" value="" style="ellipse;whiteSpace=wrap;html=1;aspect=fixed;fontSize=16;fillColor=#CC0000;strokeColor=#CC0000;" parent="fz3putxpxaoxdugT7Cy--140" vertex="1">
          <mxGeometry x="34" y="43" width="10" height="10" as="geometry" />
        </mxCell>
        <mxCell id="fz3putxpxaoxdugT7Cy--28" value="" style="ellipse;whiteSpace=wrap;html=1;aspect=fixed;fontSize=16;fillColor=#CC0000;strokeColor=#CC0000;" parent="fz3putxpxaoxdugT7Cy--140" vertex="1">
          <mxGeometry x="49" y="15.5" width="10" height="10" as="geometry" />
        </mxCell>
        <mxCell id="fz3putxpxaoxdugT7Cy--29" value="" style="ellipse;whiteSpace=wrap;html=1;aspect=fixed;fontSize=16;fillColor=#CC0000;strokeColor=#CC0000;" parent="fz3putxpxaoxdugT7Cy--140" vertex="1">
          <mxGeometry x="46" y="74" width="10" height="10" as="geometry" />
        </mxCell>
        <mxCell id="fz3putxpxaoxdugT7Cy--30" value="" style="ellipse;whiteSpace=wrap;html=1;aspect=fixed;fontSize=16;fillColor=#CC0000;strokeColor=#CC0000;" parent="fz3putxpxaoxdugT7Cy--140" vertex="1">
          <mxGeometry x="96" y="22" width="10" height="10" as="geometry" />
        </mxCell>
        <mxCell id="fz3putxpxaoxdugT7Cy--31" value="" style="ellipse;whiteSpace=wrap;html=1;aspect=fixed;fontSize=16;fillColor=#CC0000;strokeColor=#CC0000;" parent="fz3putxpxaoxdugT7Cy--140" vertex="1">
          <mxGeometry x="56" y="105" width="10" height="10" as="geometry" />
        </mxCell>
        <mxCell id="fz3putxpxaoxdugT7Cy--32" value="" style="endArrow=classic;html=1;rounded=0;fontSize=12;startSize=8;endSize=8;curved=1;" parent="fz3putxpxaoxdugT7Cy--140" source="fz3putxpxaoxdugT7Cy--24" target="fz3putxpxaoxdugT7Cy--22" edge="1">
          <mxGeometry width="50" height="50" relative="1" as="geometry">
            <mxPoint x="107" y="108" as="sourcePoint" />
            <mxPoint x="157" y="58" as="targetPoint" />
          </mxGeometry>
        </mxCell>
        <mxCell id="fz3putxpxaoxdugT7Cy--33" value="" style="endArrow=classic;html=1;rounded=0;fontSize=12;startSize=8;endSize=8;curved=1;exitX=0.5;exitY=0;exitDx=0;exitDy=0;" parent="fz3putxpxaoxdugT7Cy--140" source="fz3putxpxaoxdugT7Cy--25" target="fz3putxpxaoxdugT7Cy--20" edge="1">
          <mxGeometry width="50" height="50" relative="1" as="geometry">
            <mxPoint x="54" y="78" as="sourcePoint" />
            <mxPoint x="116" y="90" as="targetPoint" />
          </mxGeometry>
        </mxCell>
        <mxCell id="fz3putxpxaoxdugT7Cy--34" value="" style="ellipse;whiteSpace=wrap;html=1;aspect=fixed;fontSize=16;fillColor=#e1d5e7;strokeColor=#9673a6;" parent="fz3putxpxaoxdugT7Cy--140" vertex="1">
          <mxGeometry x="52" y="167" width="10" height="10" as="geometry" />
        </mxCell>
        <mxCell id="fz3putxpxaoxdugT7Cy--36" value="&lt;span style=&quot;font-size: 12px;&quot;&gt;&lt;b&gt;噪点&lt;/b&gt;&lt;/span&gt;" style="text;html=1;strokeColor=none;fillColor=none;align=center;verticalAlign=middle;whiteSpace=wrap;rounded=0;fontSize=16;" parent="fz3putxpxaoxdugT7Cy--140" vertex="1">
          <mxGeometry x="121" y="180" width="30" height="14" as="geometry" />
        </mxCell>
        <mxCell id="fz3putxpxaoxdugT7Cy--37" value="" style="endArrow=classic;html=1;rounded=0;fontSize=12;startSize=8;endSize=8;curved=1;" parent="fz3putxpxaoxdugT7Cy--140" source="fz3putxpxaoxdugT7Cy--36" target="fz3putxpxaoxdugT7Cy--34" edge="1">
          <mxGeometry width="50" height="50" relative="1" as="geometry">
            <mxPoint x="177" y="141" as="sourcePoint" />
            <mxPoint x="130" y="97" as="targetPoint" />
          </mxGeometry>
        </mxCell>
        <mxCell id="fz3putxpxaoxdugT7Cy--39" value="" style="ellipse;whiteSpace=wrap;html=1;aspect=fixed;fontSize=16;fillColor=#e1d5e7;strokeColor=#9673a6;" parent="fz3putxpxaoxdugT7Cy--140" vertex="1">
          <mxGeometry x="36" y="155" width="10" height="10" as="geometry" />
        </mxCell>
      </root>
    </mxGraphModel>
  </diagram>
  <diagram id="27vFnbld6I5aSw4oLdkW" name="第 4 页">
    <mxGraphModel dx="1621" dy="774" grid="1" gridSize="10" guides="1" tooltips="1" connect="1" arrows="1" fold="1" page="0" pageScale="1" pageWidth="827" pageHeight="1169" math="1" shadow="0">
      <root>
        <mxCell id="0" />
        <mxCell id="1" parent="0" />
        <mxCell id="hOz9TpreZSbOC7E7d3-j-30" value="" style="group" parent="1" vertex="1" connectable="0">
          <mxGeometry x="-15" y="132.5" width="299.18" height="207.5" as="geometry" />
        </mxCell>
        <mxCell id="hOz9TpreZSbOC7E7d3-j-19" value="" style="rounded=0;whiteSpace=wrap;html=1;fontSize=16;fillColor=default;strokeColor=none;" parent="hOz9TpreZSbOC7E7d3-j-30" vertex="1">
          <mxGeometry width="299.18" height="207.5" as="geometry" />
        </mxCell>
        <mxCell id="hOz9TpreZSbOC7E7d3-j-2" value="" style="ellipse;whiteSpace=wrap;html=1;aspect=fixed;fontSize=16;fillColor=#f8cecc;strokeColor=#b85450;" parent="hOz9TpreZSbOC7E7d3-j-30" vertex="1">
          <mxGeometry x="246.09967741935483" y="115.81395348837208" width="19.3018211514904" height="19.3018211514904" as="geometry" />
        </mxCell>
        <mxCell id="hOz9TpreZSbOC7E7d3-j-3" value="" style="ellipse;whiteSpace=wrap;html=1;aspect=fixed;fontSize=16;fillColor=#d5e8d4;strokeColor=#82b366;" parent="hOz9TpreZSbOC7E7d3-j-30" vertex="1">
          <mxGeometry x="86.85870967741936" y="149.59302325581393" width="19.3018211514904" height="19.3018211514904" as="geometry" />
        </mxCell>
        <mxCell id="hOz9TpreZSbOC7E7d3-j-4" value="" style="ellipse;whiteSpace=wrap;html=1;aspect=fixed;fontSize=16;fillColor=#d5e8d4;strokeColor=#82b366;" parent="hOz9TpreZSbOC7E7d3-j-30" vertex="1">
          <mxGeometry x="125.4625806451613" y="149.59302325581393" width="19.3018211514904" height="19.3018211514904" as="geometry" />
        </mxCell>
        <mxCell id="hOz9TpreZSbOC7E7d3-j-5" value="" style="ellipse;whiteSpace=wrap;html=1;aspect=fixed;fontSize=16;fillColor=#d5e8d4;strokeColor=#82b366;" parent="hOz9TpreZSbOC7E7d3-j-30" vertex="1">
          <mxGeometry x="144.76451612903227" y="110.98837209302326" width="19.3018211514904" height="19.3018211514904" as="geometry" />
        </mxCell>
        <mxCell id="hOz9TpreZSbOC7E7d3-j-6" value="" style="ellipse;whiteSpace=wrap;html=1;aspect=fixed;fontSize=16;fillColor=#d5e8d4;strokeColor=#82b366;" parent="hOz9TpreZSbOC7E7d3-j-30" vertex="1">
          <mxGeometry x="28.952903225806452" y="149.59302325581393" width="19.3018211514904" height="19.3018211514904" as="geometry" />
        </mxCell>
        <mxCell id="hOz9TpreZSbOC7E7d3-j-7" value="" style="ellipse;whiteSpace=wrap;html=1;aspect=fixed;fontSize=16;fillColor=#d5e8d4;strokeColor=#82b366;" parent="hOz9TpreZSbOC7E7d3-j-30" vertex="1">
          <mxGeometry x="28.952903225806452" y="91.68604651162792" width="19.3018211514904" height="19.3018211514904" as="geometry" />
        </mxCell>
        <mxCell id="hOz9TpreZSbOC7E7d3-j-8" value="" style="ellipse;whiteSpace=wrap;html=1;aspect=fixed;fontSize=16;fillColor=#d5e8d4;strokeColor=#82b366;" parent="hOz9TpreZSbOC7E7d3-j-30" vertex="1">
          <mxGeometry x="67.55677419354839" y="110.98837209302326" width="19.3018211514904" height="19.3018211514904" as="geometry" />
        </mxCell>
        <mxCell id="hOz9TpreZSbOC7E7d3-j-9" value="" style="ellipse;whiteSpace=wrap;html=1;aspect=fixed;fontSize=16;fillColor=#d5e8d4;strokeColor=#82b366;" parent="hOz9TpreZSbOC7E7d3-j-30" vertex="1">
          <mxGeometry x="86.85870967741936" y="72.38372093023256" width="19.3018211514904" height="19.3018211514904" as="geometry" />
        </mxCell>
        <mxCell id="hOz9TpreZSbOC7E7d3-j-10" value="" style="ellipse;whiteSpace=wrap;html=1;aspect=fixed;fontSize=16;fillColor=#d5e8d4;strokeColor=#82b366;" parent="hOz9TpreZSbOC7E7d3-j-30" vertex="1">
          <mxGeometry x="48.25483870967742" y="53.08139534883719" width="19.3018211514904" height="19.3018211514904" as="geometry" />
        </mxCell>
        <mxCell id="hOz9TpreZSbOC7E7d3-j-11" value="" style="ellipse;whiteSpace=wrap;html=1;aspect=fixed;fontSize=16;fillColor=#d5e8d4;strokeColor=#82b366;" parent="hOz9TpreZSbOC7E7d3-j-30" vertex="1">
          <mxGeometry x="125.4625806451613" y="72.38372093023256" width="19.3018211514904" height="19.3018211514904" as="geometry" />
        </mxCell>
        <mxCell id="hOz9TpreZSbOC7E7d3-j-12" value="" style="ellipse;whiteSpace=wrap;html=1;aspect=fixed;fontSize=16;fillColor=#d5e8d4;strokeColor=#82b366;" parent="hOz9TpreZSbOC7E7d3-j-30" vertex="1">
          <mxGeometry x="125.4625806451613" y="33.779069767441854" width="19.3018211514904" height="19.3018211514904" as="geometry" />
        </mxCell>
        <mxCell id="hOz9TpreZSbOC7E7d3-j-13" value="" style="ellipse;whiteSpace=wrap;html=1;aspect=fixed;fontSize=16;fillColor=#d5e8d4;strokeColor=#82b366;" parent="hOz9TpreZSbOC7E7d3-j-30" vertex="1">
          <mxGeometry x="106.16064516129032" y="110.98837209302326" width="19.3018211514904" height="19.3018211514904" as="geometry" />
        </mxCell>
        <mxCell id="hOz9TpreZSbOC7E7d3-j-14" value="" style="ellipse;whiteSpace=wrap;html=1;aspect=fixed;fontSize=16;fillColor=none;strokeColor=#FF0000;dashed=1;strokeWidth=2;" parent="hOz9TpreZSbOC7E7d3-j-30" vertex="1">
          <mxGeometry x="241.2741935483871" y="110.98837209302326" width="28.952731727235605" height="28.952731727235605" as="geometry" />
        </mxCell>
        <mxCell id="hOz9TpreZSbOC7E7d3-j-15" value="" style="ellipse;whiteSpace=wrap;html=1;aspect=fixed;fontSize=16;fillColor=none;strokeColor=#2B64FF;dashed=1;strokeWidth=2;" parent="hOz9TpreZSbOC7E7d3-j-30" vertex="1">
          <mxGeometry x="101.3351612903226" y="106.16279069767441" width="28.952731727235605" height="28.952731727235605" as="geometry" />
        </mxCell>
        <mxCell id="hOz9TpreZSbOC7E7d3-j-17" value="" style="endArrow=none;dashed=1;html=1;rounded=0;fontSize=12;startSize=8;endSize=8;curved=1;" parent="hOz9TpreZSbOC7E7d3-j-30" edge="1">
          <mxGeometry width="50" height="50" relative="1" as="geometry">
            <mxPoint x="183.36838709677423" y="197.84883720930236" as="sourcePoint" />
            <mxPoint x="183.36838709677423" y="4.8255813953488484" as="targetPoint" />
          </mxGeometry>
        </mxCell>
        <mxCell id="hOz9TpreZSbOC7E7d3-j-20" value="&lt;font style=&quot;font-size: 12px;&quot;&gt;&lt;b&gt;$$异常点$$&lt;/b&gt;&lt;/font&gt;" style="text;html=1;strokeColor=none;fillColor=none;align=center;verticalAlign=middle;whiteSpace=wrap;rounded=0;fontSize=16;" parent="hOz9TpreZSbOC7E7d3-j-30" vertex="1">
          <mxGeometry x="212.32129032258064" y="174.68604651162792" width="57.905806451612904" height="19.30232558139535" as="geometry" />
        </mxCell>
        <mxCell id="hOz9TpreZSbOC7E7d3-j-21" value="&lt;font style=&quot;font-size: 12px;&quot;&gt;&lt;b&gt;$$正常点$$&lt;/b&gt;&lt;/font&gt;" style="text;html=1;strokeColor=none;fillColor=none;align=center;verticalAlign=middle;whiteSpace=wrap;rounded=0;fontSize=16;" parent="hOz9TpreZSbOC7E7d3-j-30" vertex="1">
          <mxGeometry x="63.69638709677419" y="174.68604651162792" width="57.905806451612904" height="19.30232558139535" as="geometry" />
        </mxCell>
        <mxCell id="hOz9TpreZSbOC7E7d3-j-29" value="" style="ellipse;whiteSpace=wrap;html=1;aspect=fixed;fontSize=16;fillColor=#d5e8d4;strokeColor=#82b366;" parent="hOz9TpreZSbOC7E7d3-j-30" vertex="1">
          <mxGeometry x="75.00483870967741" y="33.78139534883718" width="19.3018211514904" height="19.3018211514904" as="geometry" />
        </mxCell>
        <mxCell id="EC_QtJfMUgortracaPfm-1" value="训练样本" style="rounded=0;whiteSpace=wrap;html=1;fontSize=16;fillColor=#dae8fc;strokeColor=#6c8ebf;" vertex="1" parent="1">
          <mxGeometry x="-370" y="660" width="120" height="60" as="geometry" />
        </mxCell>
        <mxCell id="EC_QtJfMUgortracaPfm-2" value="子样本1" style="rounded=0;whiteSpace=wrap;html=1;fontSize=16;fillColor=#fff2cc;strokeColor=#d6b656;" vertex="1" parent="1">
          <mxGeometry x="-140" y="510" width="120" height="60" as="geometry" />
        </mxCell>
        <mxCell id="EC_QtJfMUgortracaPfm-3" value="子样本2" style="rounded=0;whiteSpace=wrap;html=1;fontSize=16;fillColor=#fff2cc;strokeColor=#d6b656;" vertex="1" parent="1">
          <mxGeometry x="-140" y="590" width="120" height="60" as="geometry" />
        </mxCell>
        <mxCell id="EC_QtJfMUgortracaPfm-4" value="子样本N-1" style="rounded=0;whiteSpace=wrap;html=1;fontSize=16;fillColor=#fff2cc;strokeColor=#d6b656;" vertex="1" parent="1">
          <mxGeometry x="-140" y="720" width="120" height="60" as="geometry" />
        </mxCell>
        <mxCell id="EC_QtJfMUgortracaPfm-5" value="子样本N" style="rounded=0;whiteSpace=wrap;html=1;fontSize=16;fillColor=#fff2cc;strokeColor=#d6b656;" vertex="1" parent="1">
          <mxGeometry x="-140" y="810" width="120" height="60" as="geometry" />
        </mxCell>
        <mxCell id="EC_QtJfMUgortracaPfm-6" value="&lt;font style=&quot;font-size: 29px;&quot;&gt;$$...$$&lt;/font&gt;" style="text;html=1;strokeColor=none;fillColor=none;align=center;verticalAlign=middle;whiteSpace=wrap;rounded=0;fontSize=16;rotation=90;" vertex="1" parent="1">
          <mxGeometry x="-100" y="680" width="60" height="10" as="geometry" />
        </mxCell>
        <mxCell id="EC_QtJfMUgortracaPfm-7" value="" style="endArrow=classic;html=1;rounded=0;fontSize=12;startSize=8;endSize=8;curved=1;entryX=0;entryY=0.5;entryDx=0;entryDy=0;exitX=1;exitY=0;exitDx=0;exitDy=0;" edge="1" parent="1" source="EC_QtJfMUgortracaPfm-1" target="EC_QtJfMUgortracaPfm-2">
          <mxGeometry width="50" height="50" relative="1" as="geometry">
            <mxPoint x="-250" y="600" as="sourcePoint" />
            <mxPoint x="-200" y="550" as="targetPoint" />
          </mxGeometry>
        </mxCell>
        <mxCell id="EC_QtJfMUgortracaPfm-8" value="" style="endArrow=classic;html=1;rounded=0;fontSize=12;startSize=8;endSize=8;curved=1;entryX=0;entryY=0.5;entryDx=0;entryDy=0;exitX=1;exitY=0.25;exitDx=0;exitDy=0;" edge="1" parent="1" source="EC_QtJfMUgortracaPfm-1" target="EC_QtJfMUgortracaPfm-3">
          <mxGeometry width="50" height="50" relative="1" as="geometry">
            <mxPoint x="-270" y="630" as="sourcePoint" />
            <mxPoint x="-130" y="550" as="targetPoint" />
          </mxGeometry>
        </mxCell>
        <mxCell id="EC_QtJfMUgortracaPfm-9" value="" style="endArrow=classic;html=1;rounded=0;fontSize=12;startSize=8;endSize=8;curved=1;entryX=0;entryY=0.5;entryDx=0;entryDy=0;exitX=1;exitY=0.75;exitDx=0;exitDy=0;" edge="1" parent="1" source="EC_QtJfMUgortracaPfm-1" target="EC_QtJfMUgortracaPfm-4">
          <mxGeometry width="50" height="50" relative="1" as="geometry">
            <mxPoint x="-260" y="640" as="sourcePoint" />
            <mxPoint x="-120" y="560" as="targetPoint" />
          </mxGeometry>
        </mxCell>
        <mxCell id="EC_QtJfMUgortracaPfm-10" value="" style="endArrow=classic;html=1;rounded=0;fontSize=12;startSize=8;endSize=8;curved=1;entryX=0;entryY=0.5;entryDx=0;entryDy=0;exitX=1;exitY=1;exitDx=0;exitDy=0;" edge="1" parent="1" source="EC_QtJfMUgortracaPfm-1" target="EC_QtJfMUgortracaPfm-5">
          <mxGeometry width="50" height="50" relative="1" as="geometry">
            <mxPoint x="-250" y="650" as="sourcePoint" />
            <mxPoint x="-110" y="570" as="targetPoint" />
          </mxGeometry>
        </mxCell>
        <mxCell id="EC_QtJfMUgortracaPfm-11" value="弱分类器1" style="rounded=1;whiteSpace=wrap;html=1;fontSize=16;fillColor=#f8cecc;strokeColor=#b85450;" vertex="1" parent="1">
          <mxGeometry x="50" y="510" width="120" height="60" as="geometry" />
        </mxCell>
        <mxCell id="EC_QtJfMUgortracaPfm-12" value="弱分类器2" style="rounded=1;whiteSpace=wrap;html=1;fontSize=16;fillColor=#f8cecc;strokeColor=#b85450;" vertex="1" parent="1">
          <mxGeometry x="50" y="590" width="120" height="60" as="geometry" />
        </mxCell>
        <mxCell id="EC_QtJfMUgortracaPfm-13" value="弱分类器N-1" style="rounded=1;whiteSpace=wrap;html=1;fontSize=16;fillColor=#f8cecc;strokeColor=#b85450;" vertex="1" parent="1">
          <mxGeometry x="50" y="720" width="120" height="60" as="geometry" />
        </mxCell>
        <mxCell id="EC_QtJfMUgortracaPfm-14" value="弱分类器N" style="rounded=1;whiteSpace=wrap;html=1;fontSize=16;fillColor=#f8cecc;strokeColor=#b85450;" vertex="1" parent="1">
          <mxGeometry x="50" y="810" width="120" height="60" as="geometry" />
        </mxCell>
        <mxCell id="EC_QtJfMUgortracaPfm-15" value="&lt;font style=&quot;font-size: 29px;&quot;&gt;$$...$$&lt;/font&gt;" style="text;html=1;strokeColor=none;fillColor=none;align=center;verticalAlign=middle;whiteSpace=wrap;rounded=0;fontSize=16;rotation=90;" vertex="1" parent="1">
          <mxGeometry x="90" y="680" width="60" height="10" as="geometry" />
        </mxCell>
        <mxCell id="EC_QtJfMUgortracaPfm-16" value="" style="endArrow=classic;html=1;rounded=0;fontSize=12;startSize=8;endSize=8;curved=1;entryX=0;entryY=0.5;entryDx=0;entryDy=0;exitX=1;exitY=0.5;exitDx=0;exitDy=0;" edge="1" parent="1" source="EC_QtJfMUgortracaPfm-2" target="EC_QtJfMUgortracaPfm-11">
          <mxGeometry width="50" height="50" relative="1" as="geometry">
            <mxPoint x="170" y="750" as="sourcePoint" />
            <mxPoint x="220" y="700" as="targetPoint" />
          </mxGeometry>
        </mxCell>
        <mxCell id="EC_QtJfMUgortracaPfm-17" value="" style="endArrow=classic;html=1;rounded=0;fontSize=12;startSize=8;endSize=8;curved=1;entryX=0;entryY=0.5;entryDx=0;entryDy=0;exitX=1;exitY=0.5;exitDx=0;exitDy=0;" edge="1" parent="1" source="EC_QtJfMUgortracaPfm-3" target="EC_QtJfMUgortracaPfm-12">
          <mxGeometry width="50" height="50" relative="1" as="geometry">
            <mxPoint x="10" y="650" as="sourcePoint" />
            <mxPoint x="50" y="619.5" as="targetPoint" />
          </mxGeometry>
        </mxCell>
        <mxCell id="EC_QtJfMUgortracaPfm-18" value="" style="endArrow=classic;html=1;rounded=0;fontSize=12;startSize=8;endSize=8;curved=1;exitX=1;exitY=0.5;exitDx=0;exitDy=0;entryX=0;entryY=0.5;entryDx=0;entryDy=0;" edge="1" parent="1" source="EC_QtJfMUgortracaPfm-4" target="EC_QtJfMUgortracaPfm-13">
          <mxGeometry width="50" height="50" relative="1" as="geometry">
            <mxPoint y="790" as="sourcePoint" />
            <mxPoint x="10" y="790" as="targetPoint" />
          </mxGeometry>
        </mxCell>
        <mxCell id="EC_QtJfMUgortracaPfm-19" value="" style="endArrow=classic;html=1;rounded=0;fontSize=12;startSize=8;endSize=8;curved=1;exitX=1;exitY=0.5;exitDx=0;exitDy=0;" edge="1" parent="1" source="EC_QtJfMUgortracaPfm-5" target="EC_QtJfMUgortracaPfm-14">
          <mxGeometry width="50" height="50" relative="1" as="geometry">
            <mxPoint x="-10" y="860" as="sourcePoint" />
            <mxPoint x="20" y="870" as="targetPoint" />
          </mxGeometry>
        </mxCell>
        <mxCell id="EC_QtJfMUgortracaPfm-22" value="强分类器" style="rounded=1;whiteSpace=wrap;html=1;fontSize=16;fillColor=#e1d5e7;strokeColor=#9673a6;" vertex="1" parent="1">
          <mxGeometry x="270" y="655" width="120" height="60" as="geometry" />
        </mxCell>
        <mxCell id="EC_QtJfMUgortracaPfm-25" value="" style="endArrow=classic;html=1;rounded=0;fontSize=12;startSize=8;endSize=8;curved=1;entryX=0;entryY=0;entryDx=0;entryDy=0;exitX=1;exitY=0.5;exitDx=0;exitDy=0;" edge="1" parent="1" source="EC_QtJfMUgortracaPfm-11" target="EC_QtJfMUgortracaPfm-22">
          <mxGeometry width="50" height="50" relative="1" as="geometry">
            <mxPoint x="-240" y="670" as="sourcePoint" />
            <mxPoint x="-130" y="550" as="targetPoint" />
          </mxGeometry>
        </mxCell>
        <mxCell id="EC_QtJfMUgortracaPfm-26" value="" style="endArrow=classic;html=1;rounded=0;fontSize=12;startSize=8;endSize=8;curved=1;entryX=0;entryY=0.25;entryDx=0;entryDy=0;exitX=1;exitY=0.5;exitDx=0;exitDy=0;" edge="1" parent="1" source="EC_QtJfMUgortracaPfm-12" target="EC_QtJfMUgortracaPfm-22">
          <mxGeometry width="50" height="50" relative="1" as="geometry">
            <mxPoint x="180" y="550" as="sourcePoint" />
            <mxPoint x="280" y="665" as="targetPoint" />
          </mxGeometry>
        </mxCell>
        <mxCell id="EC_QtJfMUgortracaPfm-27" value="" style="endArrow=classic;html=1;rounded=0;fontSize=12;startSize=8;endSize=8;curved=1;entryX=0;entryY=0.75;entryDx=0;entryDy=0;exitX=1;exitY=0.5;exitDx=0;exitDy=0;" edge="1" parent="1" source="EC_QtJfMUgortracaPfm-13" target="EC_QtJfMUgortracaPfm-22">
          <mxGeometry width="50" height="50" relative="1" as="geometry">
            <mxPoint x="190" y="560" as="sourcePoint" />
            <mxPoint x="290" y="675" as="targetPoint" />
          </mxGeometry>
        </mxCell>
        <mxCell id="EC_QtJfMUgortracaPfm-28" value="" style="endArrow=classic;html=1;rounded=0;fontSize=12;startSize=8;endSize=8;curved=1;entryX=0;entryY=1;entryDx=0;entryDy=0;exitX=1;exitY=0.5;exitDx=0;exitDy=0;" edge="1" parent="1" source="EC_QtJfMUgortracaPfm-14" target="EC_QtJfMUgortracaPfm-22">
          <mxGeometry width="50" height="50" relative="1" as="geometry">
            <mxPoint x="200" y="570" as="sourcePoint" />
            <mxPoint x="300" y="685" as="targetPoint" />
          </mxGeometry>
        </mxCell>
      </root>
    </mxGraphModel>
  </diagram>
  <diagram id="s6Qstp17auy2dcuh9JPm" name="第 5 页">
    <mxGraphModel dx="1221" dy="774" grid="1" gridSize="10" guides="1" tooltips="1" connect="1" arrows="1" fold="1" page="1" pageScale="1" pageWidth="827" pageHeight="1169" math="1" shadow="0">
      <root>
        <mxCell id="0" />
        <mxCell id="1" parent="0" />
      </root>
    </mxGraphModel>
  </diagram>
</mxfile>
